<?xml version="1.0" encoding="UTF-8" standalone="no"?>
<svg
   xmlns:dc="http://purl.org/dc/elements/1.1/"
   xmlns:cc="http://creativecommons.org/ns#"
   xmlns:rdf="http://www.w3.org/1999/02/22-rdf-syntax-ns#"
   xmlns:svg="http://www.w3.org/2000/svg"
   xmlns="http://www.w3.org/2000/svg"
   xmlns:sodipodi="http://sodipodi.sourceforge.net/DTD/sodipodi-0.dtd"
   xmlns:inkscape="http://www.inkscape.org/namespaces/inkscape"
   version="1.1"
   x="0px"
   y="0px"
   viewBox="0 0 448 448"
   xml:space="preserve"
   id="svg2"
   inkscape:version="0.91 r13725"
   sodipodi:docname="icon_help.svg"
   width="448"
   height="448"><metadata
     id="metadata12"><rdf:RDF><cc:Work
         rdf:about=""><dc:format>image/svg+xml</dc:format><dc:type
           rdf:resource="http://purl.org/dc/dcmitype/StillImage" /><dc:title></dc:title></cc:Work></rdf:RDF></metadata><defs
     id="defs10" /><sodipodi:namedview
     pagecolor="#ffffff"
     bordercolor="#666666"
     borderopacity="1"
     objecttolerance="10"
     gridtolerance="10"
     guidetolerance="10"
     inkscape:pageopacity="0"
     inkscape:pageshadow="2"
     inkscape:window-width="1600"
     inkscape:window-height="843"
     id="namedview8"
     showgrid="false"
     fit-margin-top="0"
     fit-margin-left="0"
     fit-margin-right="0"
     fit-margin-bottom="0"
     inkscape:zoom="0.921875"
     inkscape:cx="222.70723"
     inkscape:cy="282.46631"
     inkscape:window-x="0"
     inkscape:window-y="595"
     inkscape:window-maximized="1"
     inkscape:current-layer="svg2" /><g
     id="g4"
     transform="translate(-32,-32)"><path
       d="M 256,32 C 132.3,32 32,132.3 32,256 32,379.7 132.3,480 256,480 379.7,480 480,379.7 480,256 480,132.3 379.7,32 256,32 Z m 20.2,326.7 c -0.5,17.8 -13.7,28.8 -30.8,28.3 -16.4,-0.5 -29.3,-12.2 -28.8,-30.1 0.5,-17.8 14.1,-29.1 30.5,-28.6 17.2,0.5 29.7,12.6 29.1,30.4 z m 48.7,-127.3 c -4.2,5.9 -13.6,13.5 -25.4,22.7 l -13.1,9 c -6.4,4.9 -10.4,10.7 -12.5,17.3 -1.1,3.5 -1.9,12.6 -2.1,18.7 -0.1,1.2 -0.8,3.9 -4.5,3.9 -3.7,0 -35,0 -39.1,0 -4.1,0 -4.6,-2.4 -4.5,-3.6 0.6,-16.6 3,-30.3 9.9,-41.3 9.3,-14.8 35.5,-30.4 35.5,-30.4 4,-3 7.1,-6.2 9.5,-9.7 4.4,-6 8,-12.7 8,-19.9 0,-8.3 -2,-16.2 -7.3,-22.8 -6.2,-7.7 -12.9,-11.4 -25.8,-11.4 -12.7,0 -20.1,6.4 -25.4,14.8 -5.3,8.4 -4.4,18.3 -4.4,27.3 l -48.7,0 c 0,-34 8.9,-55.7 27.7,-68.5 12.7,-8.7 28.9,-12.5 47.8,-12.5 24.8,0 44.5,4.6 61.9,17.8 16.1,12.2 24.6,29.4 24.6,52.6 0,14.3 -5,26.3 -12.1,36 z"
       id="path6"
       inkscape:connector-curvature="0" /></g></svg>