<?xml version="1.0" encoding="UTF-8" standalone="no"?>
<svg
   xmlns:dc="http://purl.org/dc/elements/1.1/"
   xmlns:cc="http://creativecommons.org/ns#"
   xmlns:rdf="http://www.w3.org/1999/02/22-rdf-syntax-ns#"
   xmlns:svg="http://www.w3.org/2000/svg"
   xmlns="http://www.w3.org/2000/svg"
   xmlns:sodipodi="http://sodipodi.sourceforge.net/DTD/sodipodi-0.dtd"
   xmlns:inkscape="http://www.inkscape.org/namespaces/inkscape"
   version="1.1"
   x="0px"
   y="0px"
   width="100px"
   height="100px"
   viewBox="0 0 100 100"
   enable-background="new 0 0 100 100"
   xml:space="preserve"
   id="svg2"
   inkscape:version="0.91 r13725"
   sodipodi:docname="icon_settings_mini.svg"><metadata
     id="metadata14"><rdf:RDF><cc:Work
         rdf:about=""><dc:format>image/svg+xml</dc:format><dc:type
           rdf:resource="http://purl.org/dc/dcmitype/StillImage" /><dc:title></dc:title></cc:Work></rdf:RDF></metadata><defs
     id="defs12" /><sodipodi:namedview
     pagecolor="#ffffff"
     bordercolor="#666666"
     borderopacity="1"
     objecttolerance="10"
     gridtolerance="10"
     guidetolerance="10"
     inkscape:pageopacity="0"
     inkscape:pageshadow="2"
     inkscape:window-width="1680"
     inkscape:window-height="1026"
     id="namedview10"
     showgrid="false"
     inkscape:zoom="4.72"
     inkscape:cx="6.9191759"
     inkscape:cy="41.297876"
     inkscape:window-x="0"
     inkscape:window-y="0"
     inkscape:window-maximized="1"
     inkscape:current-layer="svg2" /><g
     id="Captions"
     style="fill:#000000;fill-opacity:1" /><path
     inkscape:connector-curvature="0"
     style="fill:#000000;fill-opacity:1"
     id="path6"
     d="m 89.962953,52.376216 10.034859,-1.827955 c 0.02709,-2.889348 -0.197603,-5.76276 -0.66134,-8.586768 l -10.19422,-0.305987 c -0.707556,-3.311674 -1.832633,-6.530915 -3.349735,-9.566883 l 7.775146,-6.602631 c -1.400769,-2.503677 -3.021455,-4.883047 -4.847714,-7.123765 l -8.98309,4.836829 c -2.232625,-2.484553 -4.80628,-4.712523 -7.695466,-6.612193 L 75.467621,6.9849185 C 74.242147,6.2566051 72.978427,5.5681337 71.665305,4.9386287 70.358558,4.3091236 69.042249,3.7577091 67.714786,3.2509178 l -5.362445,8.6807952 c -3.28599,-1.07255 -6.634132,-1.697274 -9.972711,-1.89489 L 50.54859,0.00299044 C 47.659404,-0.02888323 44.789341,0.19423248 41.967087,0.65799442 L 41.659522,10.852788 c -3.316268,0.707597 -6.535329,1.832737 -9.574312,3.353111 L 25.478169,6.4319103 c -2.493975,1.405629 -4.874805,3.0248116 -7.10743,4.8479857 l 4.831777,8.97722 c -2.484414,2.232751 -4.718632,4.816112 -6.618196,7.707054 -3.483597,-1.243073 -6.7695876,-2.416024 -9.602998,-3.429607 -0.7234916,1.233511 -1.4103307,2.489334 -2.0398003,3.796154 -0.6294697,1.306821 -1.1824468,2.627984 -1.692397,3.961898 2.5609058,1.582528 5.5233971,3.416857 8.6739333,5.362746 -1.067709,3.286175 -1.692398,6.639286 -1.891597,9.978053 L 0.00297365,49.464556 c -0.03187189,2.886161 0.19282487,5.753198 0.65656075,8.581986 l 10.1942216,0.301206 c 0.712337,3.322831 1.842194,6.545259 3.357703,9.576446 l -7.7719589,6.604224 c 1.4071436,2.498897 3.0214544,4.87986 4.8540879,7.117392 l 8.971934,-4.83683 c 2.243781,2.484553 4.820622,4.712523 7.705028,6.612194 l -3.419853,9.601944 c 1.2191,0.718751 2.479632,1.405629 3.786379,2.030352 1.311528,0.634287 2.634212,1.192076 3.971236,1.692492 l 5.364039,-8.669639 c 3.279616,1.067768 6.627757,1.692492 9.959962,1.886922 l 1.832634,10.033832 c 2.889185,0.03187 5.757655,-0.197616 8.586284,-0.656598 l 0.312344,-10.199574 c 3.311489,-0.707596 6.524175,-1.832737 9.559972,-3.353112 l 6.60226,7.769209 c 2.498755,-1.394474 4.879585,-3.01525 7.118584,-4.836831 l -4.831777,-8.988375 c 2.479633,-2.23275 4.701102,-4.80655 6.602261,-7.695898 l 9.601403,3.431201 c 0.723492,-1.228731 1.416706,-2.494115 2.046176,-3.800936 0.624689,-1.30204 1.176072,-2.629578 1.687616,-3.963491 l -8.673933,-5.362746 c 1.066115,-3.282988 1.689209,-6.626536 1.886816,-9.96371 z M 68.229516,58.765294 C 63.386584,68.835781 51.302361,73.074979 41.232439,68.226994 31.162518,63.390164 26.923558,51.303667 31.771272,41.23318 36.61261,31.162693 48.698427,26.923495 58.763567,31.7667 c 10.069922,4.843204 14.310475,16.928107 9.465949,26.998594 z" /></svg>