<?xml version="1.0" encoding="UTF-8" standalone="no"?>
<svg
   xmlns:dc="http://purl.org/dc/elements/1.1/"
   xmlns:cc="http://creativecommons.org/ns#"
   xmlns:rdf="http://www.w3.org/1999/02/22-rdf-syntax-ns#"
   xmlns:svg="http://www.w3.org/2000/svg"
   xmlns="http://www.w3.org/2000/svg"
   xmlns:sodipodi="http://sodipodi.sourceforge.net/DTD/sodipodi-0.dtd"
   xmlns:inkscape="http://www.inkscape.org/namespaces/inkscape"
   version="1.1"
   width="16"
   height="16"
   viewBox="0 0 16 16"
   id="svg2"
   inkscape:version="0.91 r13725"
   sodipodi:docname="amenity_charging_station.svg">
  <sodipodi:namedview
     pagecolor="#ffffff"
     bordercolor="#666666"
     borderopacity="1"
     objecttolerance="10"
     gridtolerance="10"
     guidetolerance="10"
     inkscape:pageopacity="0"
     inkscape:pageshadow="2"
     inkscape:window-width="869"
     inkscape:window-height="480"
     id="namedview7"
     showgrid="false"
     inkscape:zoom="14.75"
     inkscape:cx="4.9152542"
     inkscape:cy="8.4067797"
     inkscape:window-x="0"
     inkscape:window-y="0"
     inkscape:window-maximized="0"
     inkscape:current-layer="svg2" />
  <metadata
     id="metadata8">
    <rdf:RDF>
      <cc:Work
         rdf:about="">
        <dc:format>image/svg+xml</dc:format>
        <dc:type
           rdf:resource="http://purl.org/dc/dcmitype/StillImage" />
        <dc:title />
      </cc:Work>
    </rdf:RDF>
  </metadata>
  <defs
     id="defs6" />
  <rect
     width="14"
     height="14"
     x="1"
     y="1"
     id="canvas"
     style="visibility:hidden;fill:none;stroke:none" />
  <path
     d="M 3,2 C 1.8344723,2 1,2.7955215 1,4 L 1,15 8,15 8,7.125 C 8,7.125 8.875,7 8.875,8 l 0,4 c 0,2 1.864698,2.125 2.125,2.125 0.275652,0 2.125,-0.124975 2.125,-2.125 l 0,-4 c 0,0 1.387558,0.017377 1.375,-2.96875 l -0.75,0 0,-2 C 13.75,2.4640917 13,2.4675079 13,3 l 0,2 -1,0 0,-2 C 12,2.4538157 11.25,2.4548128 11.25,3 l 0,2 -0.75,0 c 0.01252,2.9863904 1.375,3 1.375,3 l 0,4 c 0,0.874159 -0.767136,0.875 -0.875,0.875 -0.107864,0 -0.875,-0.04279 -0.875,-0.875 l 0,-4 C 10.125,6.7190916 9,5.875 8,5.875 L 8,4 C 8,2.7775442 7.1835046,2 6,2 Z m 0.96875,2 2.75,0 L 5,6.6666667 l 2.0625,0 L 3.28125,12 2.59375,12 3.96875,8 2.25,8 Z"
     id="charging-station"
     style="fill:#0092da;fill-opacity:1;stroke:none" />
</svg>
