<?xml version="1.0" encoding="UTF-8" standalone="no"?>
<svg
   xmlns:dc="http://purl.org/dc/elements/1.1/"
   xmlns:cc="http://creativecommons.org/ns#"
   xmlns:rdf="http://www.w3.org/1999/02/22-rdf-syntax-ns#"
   xmlns:svg="http://www.w3.org/2000/svg"
   xmlns="http://www.w3.org/2000/svg"
   xmlns:sodipodi="http://sodipodi.sourceforge.net/DTD/sodipodi-0.dtd"
   xmlns:inkscape="http://www.inkscape.org/namespaces/inkscape"
   id="svg2"
   viewBox="0 0 14 14"
   height="100%"
   width="100%"
   version="1.1"
   inkscape:version="0.91 r13725"
   sodipodi:docname="shopping_variety_store.svg">
  <sodipodi:namedview
     pagecolor="#ffffff"
     bordercolor="#666666"
     borderopacity="1"
     objecttolerance="10"
     gridtolerance="10"
     guidetolerance="10"
     inkscape:pageopacity="0"
     inkscape:pageshadow="2"
     inkscape:window-width="869"
     inkscape:window-height="480"
     id="namedview7"
     showgrid="false"
     inkscape:zoom="16.857143"
     inkscape:cx="4.4788136"
     inkscape:cy="6.8220339"
     inkscape:window-x="0"
     inkscape:window-y="0"
     inkscape:window-maximized="0"
     inkscape:current-layer="svg2" />
  <defs
     id="defs3053" />
  <metadata
     id="metadata8">
    <rdf:RDF>
      <cc:Work
         rdf:about="">
        <dc:format>image/svg+xml</dc:format>
        <dc:type
           rdf:resource="http://purl.org/dc/dcmitype/StillImage" />
        <dc:title />
      </cc:Work>
    </rdf:RDF>
  </metadata>
  <g
     style="font-size:7.5px;font-style:normal;font-weight:normal;line-height:125%;letter-spacing:0px;word-spacing:0px;fill:#ac39ac;fill-opacity:1;stroke:none;display:inline;font-family:Bitstream Vera Sans"
     id="text4134">
    <path
       id="variety_store"
       d="M 5,0 C 4,0 4,0 4,1 L 4.0097656,4 1,4 1,13 c 0,1 0,1 1,1 l 10,0 c 1,0 1,0 1,-1 L 13,4 10.039062,4 10,1 C 10,0 10,0 9,0 Z M 9,1 9,4 5,4 5,1 Z M 5,5 8,5 8,12 5,12 5,11 7,11 7,9 5,9 Z m 4,0 3,0 0,7 -3,0 0,-1 2,0 0,-2 -2,0 z M 6,6 6,8 7,8 7,6 Z m 4,0 0,2 1,0 0,-2 z m -8,5 2,0 0,2.48929 -1,0 L 3,12 2,12 Z"
       style="font-weight:bold;font-size:8.75px;fill:#ac39ac;fill-opacity:1" />
  </g>
</svg>
