<?xml version="1.0" encoding="UTF-8" standalone="no"?>
<svg
   xmlns:dc="http://purl.org/dc/elements/1.1/"
   xmlns:cc="http://creativecommons.org/ns#"
   xmlns:rdf="http://www.w3.org/1999/02/22-rdf-syntax-ns#"
   xmlns:svg="http://www.w3.org/2000/svg"
   xmlns="http://www.w3.org/2000/svg"
   xmlns:sodipodi="http://sodipodi.sourceforge.net/DTD/sodipodi-0.dtd"
   xmlns:inkscape="http://www.inkscape.org/namespaces/inkscape"
   version="1.1"
   width="100%"
   height="100%"
   viewBox="0 0 16 16"
   id="svg2"
   inkscape:version="0.91 r13725"
   sodipodi:docname="shopping_furniture.svg">
  <sodipodi:namedview
     pagecolor="#ffffff"
     bordercolor="#666666"
     borderopacity="1"
     objecttolerance="10"
     gridtolerance="10"
     guidetolerance="10"
     inkscape:pageopacity="0"
     inkscape:pageshadow="2"
     inkscape:window-width="869"
     inkscape:window-height="480"
     id="namedview7"
     showgrid="false"
     inkscape:zoom="14.75"
     inkscape:cx="-0.91525424"
     inkscape:cy="8"
     inkscape:window-x="0"
     inkscape:window-y="0"
     inkscape:window-maximized="0"
     inkscape:current-layer="svg2" />
  <metadata
     id="metadata8">
    <rdf:RDF>
      <cc:Work
         rdf:about="">
        <dc:format>image/svg+xml</dc:format>
        <dc:type
           rdf:resource="http://purl.org/dc/dcmitype/StillImage" />
        <dc:title />
      </cc:Work>
    </rdf:RDF>
  </metadata>
  <defs
     id="defs6" />
  <rect
     width="16"
     height="16"
     x="0"
     y="0"
     id="canvas"
     style="fill:none;stroke:none;visibility:hidden" />
  <path
     d="M 3,2 C 2,2 1,3 1,4 3,4 4,5.5760463 4,7 l 6,0 C 10,5.4818344 11,4 13,4 13,3 12,2 11,2 z M 1,5 C 0,5 0,6 0,6 0,6.5181656 0.481834,7 1,7 l 0,3 c 0,0.645252 0.423351,1 1,1 l 0.5,0 c 0,0 0,1 1,1 1,0 1,-1 1,-1 l 5,0 c 0,0 0,1 1,1 1,0 1,-1 1,-1 l 0.5,0 c 0.509491,0 1,-0.48425 1,-1 l 0,-3 c 0.494613,0 1,-0.3876224 1,-1 0,0 0,-1 -1,-1 -1,0 -2,1 -2,3 L 3,8 C 3,6 2,5 1,5 z"
     id="furniture"
     style="fill:#ac39ac;fill-opacity:1;stroke:none"
     transform="translate(1,1)" />
</svg>
