<?xml version="1.0" encoding="UTF-8" standalone="no"?>
<svg
   xmlns:dc="http://purl.org/dc/elements/1.1/"
   xmlns:cc="http://creativecommons.org/ns#"
   xmlns:rdf="http://www.w3.org/1999/02/22-rdf-syntax-ns#"
   xmlns:svg="http://www.w3.org/2000/svg"
   xmlns="http://www.w3.org/2000/svg"
   xmlns:sodipodi="http://sodipodi.sourceforge.net/DTD/sodipodi-0.dtd"
   xmlns:inkscape="http://www.inkscape.org/namespaces/inkscape"
   version="1.1"
   x="0px"
   y="0px"
   viewBox="0 0 32 32"
   id="svg2"
   inkscape:version="0.91 r13725"
   sodipodi:docname="icon_info.svg"
   width="32"
   height="32">
  <metadata
     id="metadata12">
    <rdf:RDF>
      <cc:Work
         rdf:about="">
        <dc:format>image/svg+xml</dc:format>
        <dc:type
           rdf:resource="http://purl.org/dc/dcmitype/StillImage" />
        <dc:title></dc:title>
      </cc:Work>
    </rdf:RDF>
  </metadata>
  <defs
     id="defs10" />
  <sodipodi:namedview
     pagecolor="#ffffff"
     bordercolor="#666666"
     borderopacity="1"
     objecttolerance="10"
     gridtolerance="10"
     guidetolerance="10"
     inkscape:pageopacity="0"
     inkscape:pageshadow="2"
     inkscape:window-width="1600"
     inkscape:window-height="843"
     id="namedview8"
     showgrid="false"
     inkscape:zoom="9.44"
     inkscape:cx="19.22736"
     inkscape:cy="23.304458"
     inkscape:window-x="0"
     inkscape:window-y="595"
     inkscape:window-maximized="1"
     inkscape:current-layer="svg2" />
  <g
     transform="matrix(0.39999985,0,0,0.39999985,-3.9999921,-384.94471)"
     id="g4"
     style="fill:#ffffff;fill-opacity:1">
    <path
       style="fill:#ffffff;fill-opacity:1;stroke-width:0"
       d="m 57.023436,962.36217 c -2.299173,0 -4.259478,0.81156 -5.880208,2.43231 -1.583037,1.62073 -2.375,3.5784 -2.375,5.8776 0,2.29917 0.808958,4.25947 2.429688,5.88021 1.620728,1.62073 3.564039,2.43229 5.82552,2.43229 2.299175,0 4.256876,-0.81156 5.877604,-2.43229 1.620729,-1.62074 2.432292,-3.58104 2.432292,-5.88021 0,-2.29919 -0.811563,-4.25687 -2.432292,-5.8776 -1.583037,-1.62074 -3.540739,-2.43231 -5.877604,-2.43231 z m 3.505208,26.00781 -0.197916,0.6849 c 0.06599,-0.01 0.131933,-0.0164 0.197916,-0.026 z m -0.197916,0.6849 c -7.445054,1.07585 -14.875573,1.62513 -22.330729,2.64062 l -0.765625,3.33334 c 0.791519,-0.0373 1.471088,-0.0131 2.036459,-0.0131 1.243814,0 2.223968,0.32018 2.940104,0.96094 0.716136,0.64076 1.072917,1.37653 1.072917,2.20573 0,1.31925 -0.376383,1.94609 -1.130209,4.54689 l -7.859375,27.0261 c -0.640753,2.1484 -0.960937,3.918 -0.960937,5.3125 0,2.1107 0.716165,3.8633 2.148437,5.2578 1.469964,1.357 6.068291,2.0365 8.518229,2.0365 6.407532,0 16.975272,-3.4204 22.666666,-13.3333 l -4.575521,-2.6667 c -2.374557,3.6561 -6.663722,6.2987 -8.625,7.487 -2.11389,1.007 -3.265496,0.9375 -3.906249,0.9375 -0.376913,0 -0.736299,-0.1713 -1.075521,-0.5105 -0.339223,-0.3769 -0.507812,-0.7703 -0.507812,-1.1848 0,-0.7162 0.320184,-2.2243 0.960937,-4.5235 z"
       id="path6"
       inkscape:connector-curvature="0" />
  </g>
</svg>
