<?xml version="1.0" encoding="UTF-8" standalone="no"?>
<svg
   xmlns:dc="http://purl.org/dc/elements/1.1/"
   xmlns:cc="http://creativecommons.org/ns#"
   xmlns:rdf="http://www.w3.org/1999/02/22-rdf-syntax-ns#"
   xmlns:svg="http://www.w3.org/2000/svg"
   xmlns="http://www.w3.org/2000/svg"
   xmlns:sodipodi="http://sodipodi.sourceforge.net/DTD/sodipodi-0.dtd"
   xmlns:inkscape="http://www.inkscape.org/namespaces/inkscape"
   viewBox="0 0 32 32"
   version="1.1"
   x="0px"
   y="0px"
   id="svg2"
   inkscape:version="0.91 r13725"
   sodipodi:docname="icon_email.svg"
   width="32"
   height="32">
  <metadata
     id="metadata12">
    <rdf:RDF>
      <cc:Work
         rdf:about="">
        <dc:format>image/svg+xml</dc:format>
        <dc:type
           rdf:resource="http://purl.org/dc/dcmitype/StillImage" />
        <dc:title></dc:title>
      </cc:Work>
    </rdf:RDF>
  </metadata>
  <defs
     id="defs10" />
  <sodipodi:namedview
     pagecolor="#ffffff"
     bordercolor="#666666"
     borderopacity="1"
     objecttolerance="10"
     gridtolerance="10"
     guidetolerance="10"
     inkscape:pageopacity="0"
     inkscape:pageshadow="2"
     inkscape:window-width="1600"
     inkscape:window-height="843"
     id="namedview8"
     showgrid="false"
     fit-margin-top="0"
     fit-margin-left="0"
     fit-margin-right="0"
     fit-margin-bottom="0"
     inkscape:zoom="8.9001173"
     inkscape:cx="2.0202241"
     inkscape:cy="30.059277"
     inkscape:window-x="0"
     inkscape:window-y="595"
     inkscape:window-maximized="1"
     inkscape:current-layer="svg2" />
  <g
     id="g4"
     transform="matrix(0.57119476,0,0,0.57118951,-5.4439955,-5.4196056)"
     style="fill:#ffffff;fill-opacity:1">
    <path
       style="fill:#ffffff;fill-opacity:1;fill-rule:nonzero;stroke:none"
       d="m 40.773438,9.488281 c 14.527343,0 23.820312,9.949219 23.820312,23.953125 0,12.175782 -8.375,18.195313 -15.578125,18.195313 -3.859375,0 -7.066406,-1.832031 -7.851563,-4.976563 l -0.128906,0 c -1.703125,2.621094 -5.238281,4.324219 -7.855468,4.324219 -5.367188,0 -8.898438,-4.0625 -8.898438,-10.082031 0,-8.375 6.019531,-16.359375 13.480469,-16.359375 2.09375,0 3.792969,0.914062 4.84375,3.269531 l 0.128906,0 1.046875,-2.746094 6.808594,0 -3.144532,14.921875 c -0.785156,3.269531 0.132813,4.84375 2.75,4.84375 3.929688,0 7.460938,-4.449219 7.460938,-11.128906 0,-8.898437 -4.582031,-17.539063 -17.800781,-17.539063 -10.996094,0 -21.992188,9.425782 -21.992188,23.957032 0,12.957031 9.164063,18.714844 18.980469,18.714844 3.140625,0 7.066406,-1.046876 9.683594,-2.355469 L 48.886719,62.5 c -4.058594,2.09375 -8.246094,3.011719 -12.957031,3.011719 -13.222657,0 -25.523438,-7.855469 -25.523438,-25.128907 0,-18.589843 13.742188,-30.894531 30.367188,-30.894531 z m -5.105469,34.554688 c 1.175781,0 2.222656,-0.652344 3.664062,-2.613281 l 1.441407,-8.25 C 40.3125,32.265625 39.332031,31.609375 38.152344,31.609375 34.75,31.609375 32.65625,36.71875 32.65625,40.25 c 0,2.421875 1.046875,3.792969 3.011719,3.792969 z m 0,0"
       id="path6"
       inkscape:connector-curvature="0" />
  </g>
</svg>
