<?xml version="1.0" encoding="UTF-8" standalone="no"?>
<!-- Created with Inkscape (http://www.inkscape.org/) -->

<svg
   xmlns:dc="http://purl.org/dc/elements/1.1/"
   xmlns:cc="http://creativecommons.org/ns#"
   xmlns:rdf="http://www.w3.org/1999/02/22-rdf-syntax-ns#"
   xmlns:svg="http://www.w3.org/2000/svg"
   xmlns="http://www.w3.org/2000/svg"
   xmlns:sodipodi="http://sodipodi.sourceforge.net/DTD/sodipodi-0.dtd"
   xmlns:inkscape="http://www.inkscape.org/namespaces/inkscape"
   width="266.84198mm"
   height="49.388889mm"
   viewBox="0 0 945.50308 175"
   id="svg2"
   version="1.1"
   inkscape:version="0.91 r13725"
   sodipodi:docname="logo.svg"
   inkscape:export-filename="/home/adrien/Documents/Programmation/Web/OpenLevelUp-website/src/img/logo.png"
   inkscape:export-xdpi="90"
   inkscape:export-ydpi="90">
  <defs
     id="defs4" />
  <sodipodi:namedview
     id="base"
     pagecolor="#ffffff"
     bordercolor="#666666"
     borderopacity="1.0"
     inkscape:pageopacity="0.0"
     inkscape:pageshadow="2"
     inkscape:zoom="0.98994949"
     inkscape:cx="97.847113"
     inkscape:cy="25.521031"
     inkscape:document-units="px"
     inkscape:current-layer="layer1"
     showgrid="false"
     inkscape:window-width="1920"
     inkscape:window-height="1056"
     inkscape:window-x="1600"
     inkscape:window-y="0"
     inkscape:window-maximized="1"
     fit-margin-top="0"
     fit-margin-left="0"
     fit-margin-right="0"
     fit-margin-bottom="0" />
  <metadata
     id="metadata7">
    <rdf:RDF>
      <cc:Work
         rdf:about="">
        <dc:format>image/svg+xml</dc:format>
        <dc:type
           rdf:resource="http://purl.org/dc/dcmitype/StillImage" />
        <dc:title />
      </cc:Work>
    </rdf:RDF>
  </metadata>
  <g
     inkscape:label="Calque 1"
     inkscape:groupmode="layer"
     id="layer1"
     transform="translate(30.00035,-907.3622)">
    <path
       style="color:#000000;clip-rule:nonzero;display:inline;overflow:visible;visibility:visible;opacity:1;isolation:auto;mix-blend-mode:normal;color-interpolation:sRGB;color-interpolation-filters:linearRGB;solid-color:#000000;solid-opacity:1;fill:#222222;fill-opacity:1;fill-rule:nonzero;stroke:none;stroke-width:2;stroke-linecap:butt;stroke-linejoin:miter;stroke-miterlimit:4;stroke-dasharray:none;stroke-dashoffset:0;stroke-opacity:1;color-rendering:auto;image-rendering:auto;shape-rendering:auto;text-rendering:auto;enable-background:accumulate"
       d="m -30.00035,907.3622 945.50269,0 4.3e-4,175 -945.502693,0 z"
       id="rect4308"
       inkscape:connector-curvature="0"
       sodipodi:nodetypes="ccccc" />
    <g
       id="g4405">
      <path
         sodipodi:nodetypes="ccccccc"
         inkscape:connector-curvature="0"
         id="rect4136"
         d="m 0,1022.3622 80,0 28,-25 0,30 -28,25 -80,0 z"
         style="color:#000000;clip-rule:nonzero;display:inline;overflow:visible;visibility:visible;opacity:1;isolation:auto;mix-blend-mode:normal;color-interpolation:sRGB;color-interpolation-filters:linearRGB;solid-color:#000000;solid-opacity:1;fill:#3366cc;fill-opacity:1;fill-rule:nonzero;stroke:none;stroke-width:2;stroke-linecap:butt;stroke-linejoin:miter;stroke-miterlimit:4;stroke-dasharray:none;stroke-dashoffset:0;stroke-opacity:1;color-rendering:auto;image-rendering:auto;shape-rendering:auto;text-rendering:auto;enable-background:accumulate" />
      <path
         sodipodi:nodetypes="ccccc"
         inkscape:connector-curvature="0"
         id="rect4158"
         d="m 4,1026.3622 72,0 0,22 -72,-2e-4 z"
         style="color:#000000;clip-rule:nonzero;display:inline;overflow:visible;visibility:visible;opacity:1;isolation:auto;mix-blend-mode:normal;color-interpolation:sRGB;color-interpolation-filters:linearRGB;solid-color:#000000;solid-opacity:1;fill:#9dbeff;fill-opacity:1;fill-rule:nonzero;stroke:none;stroke-width:2;stroke-linecap:butt;stroke-linejoin:miter;stroke-miterlimit:4;stroke-dasharray:none;stroke-dashoffset:0;stroke-opacity:1;color-rendering:auto;image-rendering:auto;shape-rendering:auto;text-rendering:auto;enable-background:accumulate" />
      <path
         sodipodi:nodetypes="ccccc"
         inkscape:connector-curvature="0"
         id="rect4158-3"
         d="m 84,1023.3622 22,-20.5 0,22.0001 -22,20.4999 z"
         style="color:#000000;clip-rule:nonzero;display:inline;overflow:visible;visibility:visible;opacity:1;isolation:auto;mix-blend-mode:normal;color-interpolation:sRGB;color-interpolation-filters:linearRGB;solid-color:#000000;solid-opacity:1;fill:#9dbeff;fill-opacity:1;fill-rule:nonzero;stroke:none;stroke-width:2;stroke-linecap:butt;stroke-linejoin:miter;stroke-miterlimit:4;stroke-dasharray:none;stroke-dashoffset:0;stroke-opacity:1;color-rendering:auto;image-rendering:auto;shape-rendering:auto;text-rendering:auto;enable-background:accumulate" />
      <path
         sodipodi:nodetypes="ccccccc"
         inkscape:connector-curvature="0"
         id="rect4136-8"
         d="m 0,992.36221 80,0 28,-25 0,30 -28,24.99999 -80,0 z"
         style="color:#000000;clip-rule:nonzero;display:inline;overflow:visible;visibility:visible;opacity:1;isolation:auto;mix-blend-mode:normal;color-interpolation:sRGB;color-interpolation-filters:linearRGB;solid-color:#000000;solid-opacity:1;fill:#ff0300;fill-opacity:1;fill-rule:nonzero;stroke:none;stroke-width:2;stroke-linecap:butt;stroke-linejoin:miter;stroke-miterlimit:4;stroke-dasharray:none;stroke-dashoffset:0;stroke-opacity:1;color-rendering:auto;image-rendering:auto;shape-rendering:auto;text-rendering:auto;enable-background:accumulate" />
      <path
         sodipodi:nodetypes="ccccc"
         inkscape:connector-curvature="0"
         id="rect4158-2"
         d="m 4,996.3622 72,0 0,22 -72,-2e-4 z"
         style="color:#000000;clip-rule:nonzero;display:inline;overflow:visible;visibility:visible;opacity:1;isolation:auto;mix-blend-mode:normal;color-interpolation:sRGB;color-interpolation-filters:linearRGB;solid-color:#000000;solid-opacity:1;fill:#ffa5a9;fill-opacity:1;fill-rule:nonzero;stroke:none;stroke-width:2;stroke-linecap:butt;stroke-linejoin:miter;stroke-miterlimit:4;stroke-dasharray:none;stroke-dashoffset:0;stroke-opacity:1;color-rendering:auto;image-rendering:auto;shape-rendering:auto;text-rendering:auto;enable-background:accumulate" />
      <path
         sodipodi:nodetypes="ccccccc"
         inkscape:connector-curvature="0"
         id="rect4136-7"
         d="m 0,962.3622 80,0 28,-25 0,30 -28,25 -80,0 z"
         style="color:#000000;clip-rule:nonzero;display:inline;overflow:visible;visibility:visible;opacity:1;isolation:auto;mix-blend-mode:normal;color-interpolation:sRGB;color-interpolation-filters:linearRGB;solid-color:#000000;solid-opacity:1;fill:#3366cc;fill-opacity:1;fill-rule:nonzero;stroke:none;stroke-width:2;stroke-linecap:butt;stroke-linejoin:miter;stroke-miterlimit:4;stroke-dasharray:none;stroke-dashoffset:0;stroke-opacity:1;color-rendering:auto;image-rendering:auto;shape-rendering:auto;text-rendering:auto;enable-background:accumulate" />
      <path
         sodipodi:nodetypes="ccccc"
         inkscape:connector-curvature="0"
         id="rect4158-0"
         d="m 4,966.3622 72,0 0,22 -72,-2e-4 z"
         style="color:#000000;clip-rule:nonzero;display:inline;overflow:visible;visibility:visible;opacity:1;isolation:auto;mix-blend-mode:normal;color-interpolation:sRGB;color-interpolation-filters:linearRGB;solid-color:#000000;solid-opacity:1;fill:#9dbeff;fill-opacity:1;fill-rule:nonzero;stroke:none;stroke-width:2;stroke-linecap:butt;stroke-linejoin:miter;stroke-miterlimit:4;stroke-dasharray:none;stroke-dashoffset:0;stroke-opacity:1;color-rendering:auto;image-rendering:auto;shape-rendering:auto;text-rendering:auto;enable-background:accumulate" />
      <path
         sodipodi:nodetypes="ccccc"
         inkscape:connector-curvature="0"
         id="rect4158-3-4"
         d="m 84,963.3622 22,-20.5 0,22.0001 -22,20.4999 z"
         style="color:#000000;clip-rule:nonzero;display:inline;overflow:visible;visibility:visible;opacity:1;isolation:auto;mix-blend-mode:normal;color-interpolation:sRGB;color-interpolation-filters:linearRGB;solid-color:#000000;solid-opacity:1;fill:#9dbeff;fill-opacity:1;fill-rule:nonzero;stroke:none;stroke-width:2;stroke-linecap:butt;stroke-linejoin:miter;stroke-miterlimit:4;stroke-dasharray:none;stroke-dashoffset:0;stroke-opacity:1;color-rendering:auto;image-rendering:auto;shape-rendering:auto;text-rendering:auto;enable-background:accumulate" />
      <path
         sodipodi:nodetypes="ccccc"
         inkscape:connector-curvature="0"
         id="rect4158-3-46"
         d="M 83.999998,993.36216 106,972.86219 l 0,22.00007 -22.000001,20.49994 z"
         style="color:#000000;clip-rule:nonzero;display:inline;overflow:visible;visibility:visible;opacity:1;isolation:auto;mix-blend-mode:normal;color-interpolation:sRGB;color-interpolation-filters:linearRGB;solid-color:#000000;solid-opacity:1;fill:#ffa5a9;fill-opacity:1;fill-rule:nonzero;stroke:none;stroke-width:2;stroke-linecap:butt;stroke-linejoin:miter;stroke-miterlimit:4;stroke-dasharray:none;stroke-dashoffset:0;stroke-opacity:1;color-rendering:auto;image-rendering:auto;shape-rendering:auto;text-rendering:auto;enable-background:accumulate" />
      <path
         sodipodi:nodetypes="ccccc"
         inkscape:connector-curvature="0"
         id="path4262"
         d="m 0,962.3622 80,0 28,-25 -80,0 z"
         style="fill:#0c40a7;fill-opacity:1;fill-rule:evenodd;stroke:none;stroke-width:1px;stroke-linecap:butt;stroke-linejoin:miter;stroke-opacity:1" />
    </g>
    <g
       id="g4402"
       transform="matrix(1.3059183,0,0,1.3059183,-50.887745,-283.12536)">
      <g
         id="g4390">
        <g
           transform="matrix(1.3651525,0,0,1.3651525,-34.302792,-334.24126)"
           style="font-style:normal;font-weight:normal;font-size:7.5px;line-height:125%;font-family:Sans;letter-spacing:0px;word-spacing:0px;fill:#000000;fill-opacity:1;stroke:none;stroke-width:1px;stroke-linecap:butt;stroke-linejoin:miter;stroke-opacity:1"
           id="flowRoot4264">
          <path
             d="m 143.77539,936.01953 0,-2.1875 10.9375,0 10.9375,0 0,2.1875 0,2.1875 2.1875,0 2.1875,0 0,10.9375 0,10.9375 -2.1875,0 -2.1875,0 0,2.1875 0,2.1875 -10.9375,0 -10.9375,0 0,-2.1875 0,-2.1875 -2.1875,0 -2.1875,0 0,-10.9375 0,-10.9375 2.1875,0 2.1875,0 0,-2.1875 z m 17.5,13.125 0,-10.9375 -6.5625,0 -6.5625,0 0,10.9375 0,10.9375 6.5625,0 6.5625,0 0,-10.9375 z"
             style="font-style:normal;font-variant:normal;font-weight:500;font-stretch:normal;font-size:35px;font-family:'Press Start 2P';-inkscape-font-specification:'Press Start 2P Medium'"
             id="path4299"
             inkscape:connector-curvature="0" />
          <path
             d="m 174.40039,955.70703 0,-13.125 13.125,0 13.125,0 0,2.1875 0,2.1875 2.1875,0 2.1875,0 0,4.375 0,4.375 -2.1875,0 -2.1875,0 0,2.1875 0,2.1875 -8.75,0 -8.75,0 0,4.375 0,4.375 -4.375,0 -4.375,0 0,-13.125 z m 21.875,-4.375 0,-4.375 -6.5625,0 -6.5625,0 0,4.375 0,4.375 6.5625,0 6.5625,0 0,-4.375 z"
             style="font-style:normal;font-variant:normal;font-weight:500;font-stretch:normal;font-size:35px;font-family:'Press Start 2P';-inkscape-font-specification:'Press Start 2P Medium'"
             id="path4301"
             inkscape:connector-curvature="0" />
          <path
             d="m 213.77539,944.76953 0,-2.1875 10.9375,0 10.9375,0 0,2.1875 0,2.1875 2.1875,0 2.1875,0 0,4.375 0,4.375 -10.9375,0 -10.9375,0 0,2.1875 0,2.1875 8.75,0 8.75,0 0,2.1875 0,2.1875 -10.9375,0 -10.9375,0 0,-2.1875 0,-2.1875 -2.1875,0 -2.1875,0 0,-6.5625 0,-6.5625 2.1875,0 2.1875,0 0,-2.1875 z m 17.5,4.375 0,-2.1875 -6.5625,0 -6.5625,0 0,2.1875 0,2.1875 6.5625,0 6.5625,0 0,-2.1875 z"
             style="font-style:normal;font-variant:normal;font-weight:500;font-stretch:normal;font-size:35px;font-family:'Press Start 2P';-inkscape-font-specification:'Press Start 2P Medium'"
             id="path4303"
             inkscape:connector-curvature="0" />
          <path
             d="m 244.40039,953.51953 0,-10.9375 13.125,0 13.125,0 0,2.1875 0,2.1875 2.1875,0 2.1875,0 0,8.75 0,8.75 -4.375,0 -4.375,0 0,-8.75 0,-8.75 -6.5625,0 -6.5625,0 0,8.75 0,8.75 -4.375,0 -4.375,0 0,-10.9375 z"
             style="font-style:normal;font-variant:normal;font-weight:500;font-stretch:normal;font-size:35px;font-family:'Press Start 2P';-inkscape-font-specification:'Press Start 2P Medium'"
             id="path4305"
             inkscape:connector-curvature="0" />
          <path
             d="m 283.77539,949.14453 0,-15.3125 4.375,0 4.375,0 0,13.125 0,13.125 8.75,0 8.75,0 0,2.1875 0,2.1875 -13.125,0 -13.125,0 0,-15.3125 z"
             style="font-style:normal;font-variant:normal;font-weight:500;font-stretch:normal;font-size:35px;font-family:'Press Start 2P';-inkscape-font-specification:'Press Start 2P Medium'"
             id="path4307"
             inkscape:connector-curvature="0" />
          <path
             d="m 318.77539,944.76953 0,-2.1875 10.9375,0 10.9375,0 0,2.1875 0,2.1875 2.1875,0 2.1875,0 0,4.375 0,4.375 -10.9375,0 -10.9375,0 0,2.1875 0,2.1875 8.75,0 8.75,0 0,2.1875 0,2.1875 -10.9375,0 -10.9375,0 0,-2.1875 0,-2.1875 -2.1875,0 -2.1875,0 0,-6.5625 0,-6.5625 2.1875,0 2.1875,0 0,-2.1875 z m 17.5,4.375 0,-2.1875 -6.5625,0 -6.5625,0 0,2.1875 0,2.1875 6.5625,0 6.5625,0 0,-2.1875 z"
             style="font-style:normal;font-variant:normal;font-weight:500;font-stretch:normal;font-size:35px;font-family:'Press Start 2P';-inkscape-font-specification:'Press Start 2P Medium'"
             id="path4309"
             inkscape:connector-curvature="0" />
          <path
             d="m 353.77539,949.14453 0,-6.5625 4.375,0 4.375,0 0,6.5625 0,6.5625 4.375,0 4.375,0 0,-6.5625 0,-6.5625 4.375,0 4.375,0 0,6.5625 0,6.5625 -2.1875,0 -2.1875,0 0,2.1875 0,2.1875 -2.1875,0 -2.1875,0 0,2.1875 0,2.1875 -4.375,0 -4.375,0 0,-2.1875 0,-2.1875 -2.1875,0 -2.1875,0 0,-2.1875 0,-2.1875 -2.1875,0 -2.1875,0 0,-6.5625 z"
             style="font-style:normal;font-variant:normal;font-weight:500;font-stretch:normal;font-size:35px;font-family:'Press Start 2P';-inkscape-font-specification:'Press Start 2P Medium'"
             id="path4311"
             inkscape:connector-curvature="0" />
          <path
             d="m 388.77539,944.76953 0,-2.1875 10.9375,0 10.9375,0 0,2.1875 0,2.1875 2.1875,0 2.1875,0 0,4.375 0,4.375 -10.9375,0 -10.9375,0 0,2.1875 0,2.1875 8.75,0 8.75,0 0,2.1875 0,2.1875 -10.9375,0 -10.9375,0 0,-2.1875 0,-2.1875 -2.1875,0 -2.1875,0 0,-6.5625 0,-6.5625 2.1875,0 2.1875,0 0,-2.1875 z m 17.5,4.375 0,-2.1875 -6.5625,0 -6.5625,0 0,2.1875 0,2.1875 6.5625,0 6.5625,0 0,-2.1875 z"
             style="font-style:normal;font-variant:normal;font-weight:500;font-stretch:normal;font-size:35px;font-family:'Press Start 2P';-inkscape-font-specification:'Press Start 2P Medium'"
             id="path4313"
             inkscape:connector-curvature="0" />
          <path
             d="m 428.15039,936.01953 0,-2.1875 6.5625,0 6.5625,0 0,13.125 0,13.125 4.375,0 4.375,0 0,2.1875 0,2.1875 -13.125,0 -13.125,0 0,-2.1875 0,-2.1875 4.375,0 4.375,0 0,-10.9375 0,-10.9375 -2.1875,0 -2.1875,0 0,-2.1875 z"
             style="font-style:normal;font-variant:normal;font-weight:500;font-stretch:normal;font-size:35px;font-family:'Press Start 2P';-inkscape-font-specification:'Press Start 2P Medium'"
             id="path4315"
             inkscape:connector-curvature="0" />
          <path
             d="m 454.40039,946.95703 0,-13.125 4.375,0 4.375,0 0,13.125 0,13.125 6.5625,0 6.5625,0 0,-13.125 0,-13.125 4.375,0 4.375,0 0,13.125 0,13.125 -2.1875,0 -2.1875,0 0,2.1875 0,2.1875 -10.9375,0 -10.9375,0 0,-2.1875 0,-2.1875 -2.1875,0 -2.1875,0 0,-13.125 z"
             style="font-style:normal;font-variant:normal;font-weight:500;font-stretch:normal;font-size:35px;font-family:'Press Start 2P';-inkscape-font-specification:'Press Start 2P Medium'"
             id="path4317"
             inkscape:connector-curvature="0" />
          <path
             d="m 489.40039,955.70703 0,-13.125 13.125,0 13.125,0 0,2.1875 0,2.1875 2.1875,0 2.1875,0 0,4.375 0,4.375 -2.1875,0 -2.1875,0 0,2.1875 0,2.1875 -8.75,0 -8.75,0 0,4.375 0,4.375 -4.375,0 -4.375,0 0,-13.125 z m 21.875,-4.375 0,-4.375 -6.5625,0 -6.5625,0 0,4.375 0,4.375 6.5625,0 6.5625,0 0,-4.375 z"
             style="font-style:normal;font-variant:normal;font-weight:500;font-stretch:normal;font-size:35px;font-family:'Press Start 2P';-inkscape-font-specification:'Press Start 2P Medium'"
             id="path4319"
             inkscape:connector-curvature="0" />
          <path
             d="m 533.15039,962.26953 0,-2.1875 4.375,0 4.375,0 0,2.1875 0,2.1875 -4.375,0 -4.375,0 0,-2.1875 z m 0,-17.5 0,-10.9375 6.5625,0 6.5625,0 0,6.5625 0,6.5625 -2.1875,0 -2.1875,0 0,4.375 0,4.375 -4.375,0 -4.375,0 0,-10.9375 z"
             style="font-style:normal;font-variant:normal;font-weight:500;font-stretch:normal;font-size:35px;font-family:'Press Start 2P';-inkscape-font-specification:'Press Start 2P Medium'"
             id="path4321"
             inkscape:connector-curvature="0" />
        </g>
        <g
           transform="translate(150,934.58014)"
           style="font-style:normal;font-weight:normal;font-size:10.23864365px;line-height:125%;font-family:Sans;letter-spacing:0px;word-spacing:0px;fill:#9dbeff;fill-opacity:1;stroke:none;stroke-width:1px;stroke-linecap:butt;stroke-linejoin:miter;stroke-opacity:1"
           id="flowRoot4264-7">
          <path
             d="m 5.9725423,2.9879963 0,-2.9862711 14.9313557,0 14.931356,0 0,2.9862711 0,2.9862712 2.986271,0 2.986271,0 0,14.9313555 0,14.931356 -2.986271,0 -2.986271,0 0,2.986271 0,2.986271 -14.931356,0 -14.9313557,0 0,-2.986271 0,-2.986271 -2.9862712,0 -2.9862711,0 0,-14.931356 0,-14.9313555 2.9862711,0 2.9862712,0 0,-2.9862712 z m 23.8901687,17.9176267 0,-14.9313555 -8.958813,0 -8.958813,0 0,14.9313555 0,14.931356 8.958813,0 8.958813,0 0,-14.931356 z"
             style="font-style:normal;font-variant:normal;font-weight:500;font-stretch:normal;font-size:47.78033829px;font-family:'Press Start 2P';-inkscape-font-specification:'Press Start 2P Medium';fill:#9dbeff;fill-opacity:1"
             id="path4324"
             inkscape:connector-curvature="0" />
          <path
             d="m 47.780338,29.864437 0,-17.917627 17.917627,0 17.917627,0 0,2.986271 0,2.986271 2.986271,0 2.986271,0 0,5.972542 0,5.972543 -2.986271,0 -2.986271,0 0,2.986271 0,2.986271 -11.945085,0 -11.945084,0 0,5.972542 0,5.972542 -5.972542,0 -5.972543,0 0,-17.917626 z m 29.862712,-5.972543 0,-5.972542 -8.958814,0 -8.958813,0 0,5.972542 0,5.972543 8.958813,0 8.958814,0 0,-5.972543 z"
             style="font-style:normal;font-variant:normal;font-weight:500;font-stretch:normal;font-size:47.78033829px;font-family:'Press Start 2P';-inkscape-font-specification:'Press Start 2P Medium';fill:#9dbeff;fill-opacity:1"
             id="path4326"
             inkscape:connector-curvature="0" />
          <path
             d="m 101.53322,14.933081 0,-2.986271 14.93135,0 14.93136,0 0,2.986271 0,2.986271 2.98627,0 2.98627,0 0,5.972542 0,5.972543 -14.93135,0 -14.93136,0 0,2.986271 0,2.986271 11.94509,0 11.94508,0 0,2.986271 0,2.986271 -14.93136,0 -14.93135,0 0,-2.986271 0,-2.986271 -2.986272,0 -2.986271,0 0,-8.958814 0,-8.958813 2.986271,0 2.986272,0 0,-2.986271 z m 23.89017,5.972542 0,-2.986271 -8.95882,0 -8.95881,0 0,2.986271 0,2.986271 8.95881,0 8.95882,0 0,-2.986271 z"
             style="font-style:normal;font-variant:normal;font-weight:500;font-stretch:normal;font-size:47.78033829px;font-family:'Press Start 2P';-inkscape-font-specification:'Press Start 2P Medium';fill:#9dbeff;fill-opacity:1"
             id="path4328"
             inkscape:connector-curvature="0" />
          <path
             d="m 143.34102,26.878165 0,-14.931355 17.91763,0 17.91762,0 0,2.986271 0,2.986271 2.98627,0 2.98627,0 0,11.945085 0,11.945084 -5.97254,0 -5.97254,0 0,-11.945084 0,-11.945085 -8.95881,0 -8.95882,0 0,11.945085 0,11.945084 -5.97254,0 -5.97254,0 0,-14.931356 z"
             style="font-style:normal;font-variant:normal;font-weight:500;font-stretch:normal;font-size:47.78033829px;font-family:'Press Start 2P';-inkscape-font-specification:'Press Start 2P Medium';fill:#9dbeff;fill-opacity:1"
             id="path4330"
             inkscape:connector-curvature="0" />
          <path
             d="m 197.0939,20.905623 0,-20.9038978 5.97254,0 5.97254,0 0,17.9176268 0,17.917627 11.94508,0 11.94509,0 0,2.986271 0,2.986271 -17.91763,0 -17.91762,0 0,-20.903898 z"
             style="fill:#ffffff;fill-opacity:1"
             id="path4332"
             inkscape:connector-curvature="0" />
          <path
             d="m 244.87423,14.933081 0,-2.986271 14.93136,0 14.93135,0 0,2.986271 0,2.986271 2.98627,0 2.98627,0 0,5.972542 0,5.972543 -14.93135,0 -14.93136,0 0,2.986271 0,2.986271 11.94509,0 11.94508,0 0,2.986271 0,2.986271 -14.93135,0 -14.93136,0 0,-2.986271 0,-2.986271 -2.98627,0 -2.98627,0 0,-8.958814 0,-8.958813 2.98627,0 2.98627,0 0,-2.986271 z m 23.89017,5.972542 0,-2.986271 -8.95881,0 -8.95882,0 0,2.986271 0,2.986271 8.95882,0 8.95881,0 0,-2.986271 z"
             style="fill:#ffffff;fill-opacity:1"
             id="path4334"
             inkscape:connector-curvature="0" />
          <path
             d="m 292.65458,20.905623 0,-8.958813 5.97254,0 5.97254,0 0,8.958813 0,8.958814 5.97255,0 5.97254,0 0,-8.958814 0,-8.958813 5.97254,0 5.97254,0 0,8.958813 0,8.958814 -2.98627,0 -2.98627,0 0,2.986271 0,2.986271 -2.98627,0 -2.98627,0 0,2.986271 0,2.986271 -5.97254,0 -5.97255,0 0,-2.986271 0,-2.986271 -2.98627,0 -2.98627,0 0,-2.986271 0,-2.986271 -2.98627,0 -2.98627,0 0,-8.958814 z"
             style="fill:#ffffff;fill-opacity:1"
             id="path4336"
             inkscape:connector-curvature="0" />
          <path
             d="m 340.43491,14.933081 0,-2.986271 14.93136,0 14.93136,0 0,2.986271 0,2.986271 2.98627,0 2.98627,0 0,5.972542 0,5.972543 -14.93136,0 -14.93135,0 0,2.986271 0,2.986271 11.94508,0 11.94509,0 0,2.986271 0,2.986271 -14.93136,0 -14.93136,0 0,-2.986271 0,-2.986271 -2.98627,0 -2.98627,0 0,-8.958814 0,-8.958813 2.98627,0 2.98627,0 0,-2.986271 z m 23.89017,5.972542 0,-2.986271 -8.95881,0 -8.95881,0 0,2.986271 0,2.986271 8.95881,0 8.95881,0 0,-2.986271 z"
             style="fill:#ffffff;fill-opacity:1"
             id="path4338"
             inkscape:connector-curvature="0" />
          <path
             d="m 394.18779,2.9879963 0,-2.9862711 8.95881,0 8.95882,0 0,17.9176268 0,17.917627 5.97254,0 5.97254,0 0,2.986271 0,2.986271 -17.91762,0 -17.91763,0 0,-2.986271 0,-2.986271 5.97254,0 5.97254,0 0,-14.931356 0,-14.9313555 -2.98627,0 -2.98627,0 0,-2.9862712 z"
             style="fill:#ffffff;fill-opacity:1"
             id="path4340"
             inkscape:connector-curvature="0" />
          <path
             d="m 430.02304,17.919352 0,-17.9176268 5.97254,0 5.97255,0 0,17.9176268 0,17.917627 8.95881,0 8.95881,0 0,-17.917627 0,-17.9176268 5.97254,0 5.97255,0 0,17.9176268 0,17.917627 -2.98627,0 -2.98628,0 0,2.986271 0,2.986271 -14.93135,0 -14.93136,0 0,-2.986271 0,-2.986271 -2.98627,0 -2.98627,0 0,-17.917627 z"
             style="fill:#ffa5a9;fill-opacity:1"
             id="path4342"
             inkscape:connector-curvature="0" />
          <path
             d="m 477.80338,29.864437 0,-17.917627 17.91762,0 17.91763,0 0,2.986271 0,2.986271 2.98627,0 2.98627,0 0,5.972542 0,5.972543 -2.98627,0 -2.98627,0 0,2.986271 0,2.986271 -11.94509,0 -11.94508,0 0,5.972542 0,5.972542 -5.97254,0 -5.97254,0 0,-17.917626 z m 29.86271,-5.972543 0,-5.972542 -8.95882,0 -8.95881,0 0,5.972542 0,5.972543 8.95881,0 8.95882,0 0,-5.972543 z"
             style="fill:#ffa5a9;fill-opacity:1"
             id="path4344"
             inkscape:connector-curvature="0" />
          <path
             d="m 537.52882,38.82325 0,-2.986271 5.97255,0 5.97254,0 0,2.986271 0,2.986271 -5.97254,0 -5.97255,0 0,-2.986271 z m 0,-23.890169 0,-14.9313558 8.95882,0 8.95881,0 0,8.9588134 0,8.9588134 -2.98627,0 -2.98627,0 0,5.972542 0,5.972543 -5.97254,0 -5.97255,0 0,-14.931356 z"
             style="fill:#ffa5a9;fill-opacity:1"
             id="path4346"
             inkscape:connector-curvature="0" />
        </g>
      </g>
      <g
         transform="matrix(1.3472901,0,0,1.3472901,-24.056108,-395.35473)"
         style="font-style:normal;font-weight:normal;font-size:7.5px;line-height:125%;font-family:Sans;letter-spacing:0px;word-spacing:0px;fill:#000000;fill-opacity:1;stroke:none;stroke-width:1px;stroke-linecap:butt;stroke-linejoin:miter;stroke-opacity:1"
         id="flowRoot4310">
        <path
           d="m 136.1333,1036.7156 0,8.811 1.51611,0 q 0.81299,0 1.15357,0.3186 0.35156,0.3076 0.35156,0.813 0,0.4944 -0.35156,0.813 -0.34058,0.3076 -1.15357,0.3076 l -5.27343,0 q -0.81299,0 -1.16455,-0.3076 -0.34058,-0.3186 -0.34058,-0.824 0,-0.4944 0.34058,-0.802 0.35156,-0.3186 1.16455,-0.3186 l 1.50512,0 0,-8.811 -2.43896,0 0,2.1313 q 0,0.813 -0.3186,1.1646 -0.30762,0.3406 -0.81299,0.3406 -0.49439,0 -0.81299,-0.3406 -0.30762,-0.3516 -0.30762,-1.1646 l 0,-4.3945 11.66748,0.011 0,4.3835 q 0,0.813 -0.3186,1.1646 -0.30762,0.3406 -0.81299,0.3406 -0.49438,0 -0.81299,-0.3406 -0.30762,-0.3516 -0.30762,-1.1646 l 0,-2.1313 -2.47192,0 z"
           style="font-style:normal;font-variant:normal;font-weight:bold;font-stretch:normal;font-size:22.5px;font-family:'Courier New';-inkscape-font-specification:'Courier New Bold';fill:#ffffff;fill-opacity:1"
           id="path4349"
           inkscape:connector-curvature="0" />
        <path
           d="m 146.20776,1033.5296 0,4.801 q 0.70313,-0.4175 1.41724,-0.6153 0.7251,-0.2087 1.46118,-0.2087 1.16455,0 2.07642,0.3955 0.91186,0.3955 1.50512,1.2525 0.60425,0.8459 0.60425,2.1423 l 0,4.2297 q 0.85694,0 1.12061,0.1648 0.52734,0.3406 0.52734,0.9668 0,0.4944 -0.34057,0.813 -0.34058,0.3076 -1.15357,0.3076 l -2.5708,0 q -0.802,0 -1.15356,-0.3076 -0.34058,-0.3186 -0.34058,-0.824 0,-0.6152 0.52734,-0.9558 0.27466,-0.1758 1.12061,-0.1648 l 0,-4.0759 q 0,-0.8679 -0.39551,-1.2195 -0.51636,-0.4724 -1.5271,-0.4724 -0.74707,0 -1.32934,0.2966 -0.57129,0.2857 -1.54908,1.2525 l 0,4.2187 q 0.86792,0 1.12061,0.1648 0.53833,0.3406 0.53833,0.9668 0,0.4944 -0.35156,0.813 -0.34058,0.3076 -1.15357,0.3076 l -2.55981,0 q -0.81299,0 -1.16455,-0.3076 -0.34058,-0.3186 -0.34058,-0.824 0,-0.6152 0.53833,-0.9558 0.26367,-0.1758 1.12061,-0.1648 l 0,-9.7448 -0.38453,0 q -0.81298,0 -1.16455,-0.3077 -0.34057,-0.3186 -0.34057,-0.8239 0,-0.4944 0.34057,-0.802 0.35157,-0.3186 1.16455,-0.3186 l 2.63672,0 z"
           style="font-style:normal;font-variant:normal;font-weight:bold;font-stretch:normal;font-size:22.5px;font-family:'Courier New';-inkscape-font-specification:'Courier New Bold';fill:#ffffff;fill-opacity:1"
           id="path4351"
           inkscape:connector-curvature="0" />
        <path
           d="m 167.67505,1043.9336 -9.2395,0 q 0.35156,0.8789 1.24145,1.4172 0.90088,0.5384 2.42798,0.5384 1.25244,0 3.32886,-0.5384 0.85693,-0.2197 1.18652,-0.2197 0.45044,0 0.75806,0.3186 0.30762,0.3186 0.30762,0.802 0,0.4395 -0.32959,0.7471 -0.43946,0.4065 -2.14234,0.78 -1.70288,0.3626 -3.27392,0.3626 -2.70264,0 -4.32862,-1.5271 -1.61499,-1.5271 -1.61499,-3.7573 0,-2.3731 1.74683,-3.8563 1.75781,-1.4941 4.04297,-1.4941 1.37329,0 2.51587,0.4834 1.15356,0.4834 1.71386,1.0437 0.79102,0.813 1.30738,2.0105 0.35156,0.835 0.35156,1.9336 l 0,0.9558 z m -2.4939,-2.2522 q -0.51636,-0.9668 -1.35132,-1.4392 -0.83496,-0.4834 -1.98852,-0.4834 -1.14258,0 -1.97754,0.4834 -0.83496,0.4724 -1.36231,1.4392 l 6.67969,0 z"
           style="font-style:normal;font-variant:normal;font-weight:bold;font-stretch:normal;font-size:22.5px;font-family:'Courier New';-inkscape-font-specification:'Courier New Bold';fill:#ffffff;fill-opacity:1"
           id="path4353"
           inkscape:connector-curvature="0" />
        <path
           d="m 195.32764,1041.1211 q 0,2.9993 -1.91162,4.9988 -1.90064,1.9885 -4.40552,1.9885 -2.2522,0 -4.06494,-1.6589 -2.24121,-2.0545 -2.24121,-5.3284 0,-3.2739 2.24121,-5.3393 1.81274,-1.659 4.06494,-1.659 2.50488,0 4.40552,1.9995 1.91162,1.9886 1.91162,4.9988 z m -2.2522,0 q 0,-2.0544 -1.24146,-3.3948 -1.24145,-1.3513 -2.82348,-1.3513 -1.57105,0 -2.8125,1.3513 -1.24146,1.3514 -1.24146,3.3948 0,2.0435 1.24146,3.3948 1.24145,1.3403 2.8125,1.3403 1.58203,0 2.82348,-1.3403 1.24146,-1.3403 1.24146,-3.3948 z"
           style="font-style:normal;font-variant:normal;font-weight:bold;font-stretch:normal;font-size:22.5px;font-family:'Courier New';-inkscape-font-specification:'Courier New Bold';fill:#ffffff;fill-opacity:1"
           id="path4355"
           inkscape:connector-curvature="0" />
        <path
           d="m 199.7002,1046.5374 0,3.6914 1.35131,0 q 0.81299,0 1.15357,0.3076 0.35156,0.3186 0.35156,0.824 0,0.4944 -0.35156,0.802 -0.34058,0.3186 -1.15357,0.3186 l -3.98803,0 q -0.81299,0 -1.16455,-0.3186 -0.34058,-0.3076 -0.34058,-0.802 0,-0.5054 0.35156,-0.824 0.35156,-0.3076 1.15357,-0.3076 l 0.38452,0 0,-10.1734 -0.38452,0 q -0.81299,0 -1.16455,-0.3076 -0.34058,-0.3186 -0.34058,-0.824 0,-0.4943 0.34058,-0.802 0.35156,-0.3186 1.16455,-0.3186 l 2.63672,0 0,0.7691 q 0.79101,-0.5383 1.63696,-0.802 0.84595,-0.2637 1.73584,-0.2637 2.30713,0 3.9331,1.5711 1.62598,1.56 1.62598,3.5815 0,2.2302 -1.92261,3.6804 -1.604,1.2085 -3.6145,1.2085 -0.86792,0 -1.71387,-0.2527 -0.84594,-0.2527 -1.6809,-0.758 z m 6.67968,-3.8672 q 0,-0.4724 -0.37353,-1.1975 -0.37354,-0.7361 -1.15357,-1.2195 -0.76904,-0.4944 -1.81274,-0.4944 -1.68091,0 -2.66968,1.2634 -0.67016,0.868 -0.67016,1.67 0,0.9008 0.95581,1.7578 0.96679,0.8459 2.38403,0.8459 1.42822,0 2.38403,-0.8459 0.95581,-0.846 0.95581,-1.7798 z"
           style="font-style:normal;font-variant:normal;font-weight:bold;font-stretch:normal;font-size:22.5px;font-family:'Courier New';-inkscape-font-specification:'Courier New Bold';fill:#ffffff;fill-opacity:1"
           id="path4357"
           inkscape:connector-curvature="0" />
        <path
           d="m 221.63989,1043.9336 -9.2395,0 q 0.35156,0.8789 1.24146,1.4172 0.90087,0.5384 2.42797,0.5384 1.25245,0 3.32886,-0.5384 0.85694,-0.2197 1.18653,-0.2197 0.45043,0 0.75805,0.3186 0.30762,0.3186 0.30762,0.802 0,0.4395 -0.32959,0.7471 -0.43945,0.4065 -2.14233,0.78 -1.70289,0.3626 -3.27393,0.3626 -2.70264,0 -4.32861,-1.5271 -1.61499,-1.5271 -1.61499,-3.7573 0,-2.3731 1.74682,-3.8563 1.75781,-1.4941 4.04297,-1.4941 1.37329,0 2.51587,0.4834 1.15356,0.4834 1.71387,1.0437 0.79101,0.813 1.30737,2.0105 0.35156,0.835 0.35156,1.9336 l 0,0.9558 z m -2.49389,-2.2522 q -0.51636,-0.9668 -1.35132,-1.4392 -0.83496,-0.4834 -1.98853,-0.4834 -1.14258,0 -1.97754,0.4834 -0.83496,0.4724 -1.3623,1.4392 l 6.67969,0 z"
           style="font-style:normal;font-variant:normal;font-weight:bold;font-stretch:normal;font-size:22.5px;font-family:'Courier New';-inkscape-font-specification:'Courier New Bold';fill:#ffffff;fill-opacity:1"
           id="path4359"
           inkscape:connector-curvature="0" />
        <path
           d="m 227.19897,1037.8032 0,0.7581 q 0.61524,-0.5273 1.35132,-0.791 0.74707,-0.2637 1.61499,-0.2637 1.99951,0 3.16407,1.2415 0.92285,0.9887 0.92285,2.5927 l 0,4.1858 q 0.71411,0 1.05468,0.3186 0.34058,0.3076 0.34058,0.813 0,0.4944 -0.35156,0.813 -0.34058,0.3076 -1.15357,0.3076 l -2.03247,0 q -0.81299,0 -1.16455,-0.3076 -0.34057,-0.3186 -0.34057,-0.824 0,-0.4944 0.34057,-0.802 0.34058,-0.3186 1.05469,-0.3186 l 0,-4.2517 q 0,-0.7361 -0.39551,-1.0766 -0.51636,-0.4395 -1.54907,-0.4395 -0.78003,0 -1.37329,0.3076 -0.58228,0.2967 -1.48316,1.2744 l 0,4.1858 q 0.86792,0 1.12061,0.1648 0.53833,0.3296 0.53833,0.9668 0,0.4944 -0.35156,0.813 -0.34058,0.3076 -1.15357,0.3076 l -2.55981,0 q -0.81299,0 -1.16455,-0.3076 -0.34058,-0.3186 -0.34058,-0.824 0,-0.6152 0.52735,-0.9558 0.26367,-0.1648 1.13159,-0.1648 l 0,-5.4712 q -0.71411,0 -1.05469,-0.3186 -0.34058,-0.3186 -0.34058,-0.813 0,-0.4943 0.34058,-0.802 0.35156,-0.3186 1.16455,-0.3186 l 2.14233,0 z"
           style="font-style:normal;font-variant:normal;font-weight:bold;font-stretch:normal;font-size:22.5px;font-family:'Courier New';-inkscape-font-specification:'Courier New Bold';fill:#ffffff;fill-opacity:1"
           id="path4361"
           inkscape:connector-curvature="0" />
        <path
           d="m 239.67944,1047.2075 q -0.29663,0.3516 -0.4834,0.4505 -0.17578,0.099 -0.43945,0.099 -0.51636,0 -0.83496,-0.3406 -0.30762,-0.3516 -0.30762,-1.1536 l 0,-1.5161 q 0,-0.813 0.30762,-1.1536 0.3186,-0.3515 0.83496,-0.3515 0.39551,0 0.65918,0.2087 0.27466,0.2088 0.41748,0.7031 0.14282,0.4834 0.29663,0.6592 0.31861,0.3406 1.13159,0.6922 0.81299,0.3515 1.77979,0.3515 1.50513,0 2.47192,-0.7031 0.61524,-0.4285 0.61524,-1.0547 0,-0.4175 -0.29663,-0.78 -0.29663,-0.3736 -0.9668,-0.6153 -0.43945,-0.1648 -1.96655,-0.4504 -1.84571,-0.3406 -2.79053,-0.824 -0.94482,-0.4834 -1.49414,-1.3623 -0.54932,-0.8789 -0.54932,-1.9006 0,-1.615 1.35132,-2.8235 1.35132,-1.2195 3.51563,-1.2195 0.86792,0 1.604,0.1978 0.74707,0.1867 1.35132,0.5822 0.43945,-0.4284 0.8789,-0.4284 0.49439,0 0.80201,0.3515 0.3186,0.3406 0.3186,1.1426 l 0,1.6919 q 0,0.813 -0.3186,1.1646 -0.30762,0.3405 -0.80201,0.3405 -0.41748,0 -0.72509,-0.2526 -0.2417,-0.1868 -0.36255,-0.7471 -0.12085,-0.5603 -0.30762,-0.802 -0.3186,-0.4175 -0.95581,-0.7031 -0.63721,-0.2857 -1.47217,-0.2857 -1.21948,0 -1.93359,0.5713 -0.70313,0.5603 -0.70313,1.1755 0,0.4175 0.28565,0.813 0.29663,0.3846 0.85693,0.6043 0.37354,0.1538 2.09839,0.4944 1.73584,0.3405 2.65869,0.747 0.93384,0.4065 1.54907,1.2744 0.61524,0.868 0.61524,2.0655 0,1.6699 -1.17554,2.6697 -1.56006,1.3183 -3.97705,1.3183 -0.93384,0 -1.82373,-0.2307 -0.87891,-0.2197 -1.71387,-0.6702 z"
           style="font-style:normal;font-variant:normal;font-weight:bold;font-stretch:normal;font-size:22.5px;font-family:'Courier New';-inkscape-font-specification:'Courier New Bold';fill:#ffffff;fill-opacity:1"
           id="path4363"
           inkscape:connector-curvature="0" />
        <path
           d="m 255.90625,1040.0554 0,4.5154 q 0,0.7251 0.29663,0.9558 0.46143,0.3626 1.64795,0.3626 1.72485,0 3.18604,-0.7361 0.5603,-0.2857 0.8789,-0.2857 0.43945,0 0.75806,0.3296 0.32959,0.3296 0.32959,0.802 0,0.4395 -0.35156,0.7581 -0.53833,0.5164 -2.13135,0.9558 -1.58203,0.4285 -2.66968,0.4285 -2.09839,0 -3.15308,-0.9009 -1.0437,-0.9119 -1.0437,-2.2302 l 0,-4.9549 -0.81299,0 q -0.81298,0 -1.16455,-0.3076 -0.34057,-0.3186 -0.34057,-0.824 0,-0.4943 0.34057,-0.802 0.35157,-0.3186 1.16455,-0.3186 l 0.81299,0 0,-2.0324 q 0,-0.813 0.30762,-1.1536 0.3186,-0.3516 0.82397,-0.3516 0.49439,0 0.80201,0.3516 0.3186,0.3406 0.3186,1.1536 l 0,2.0324 4.16382,0 q 0.81299,0 1.15356,0.3186 0.35157,0.3077 0.35157,0.813 0,0.4944 -0.35157,0.813 -0.34057,0.3076 -1.15356,0.3076 l -4.16382,0 z"
           style="font-style:normal;font-variant:normal;font-weight:bold;font-stretch:normal;font-size:22.5px;font-family:'Courier New';-inkscape-font-specification:'Courier New Bold';fill:#ffffff;fill-opacity:1"
           id="path4365"
           inkscape:connector-curvature="0" />
        <path
           d="m 269.48535,1037.8032 0,1.4063 q 1.41724,-1.0217 2.23023,-1.3623 0.82397,-0.3406 1.53808,-0.3406 1.09863,0 2.13135,0.813 0.70312,0.5493 0.70312,1.1206 0,0.4834 -0.34057,0.824 -0.32959,0.3296 -0.802,0.3296 -0.41748,0 -0.87891,-0.4175 -0.46143,-0.4175 -0.82397,-0.4175 -0.47242,0 -1.41724,0.5933 -0.93384,0.5932 -2.34009,1.7798 l 0,3.3947 3.20801,0 q 0.81299,0 1.15356,0.3186 0.35157,0.3076 0.35157,0.813 0,0.4944 -0.35157,0.813 -0.34057,0.3076 -1.15356,0.3076 l -6.80054,0 q -0.81299,0 -1.16455,-0.3076 -0.34057,-0.3186 -0.34057,-0.824 0,-0.4944 0.34057,-0.802 0.35156,-0.3186 1.16455,-0.3186 l 1.34033,0 0,-5.4712 -0.81298,0 q -0.81299,0 -1.16455,-0.3076 -0.34058,-0.3186 -0.34058,-0.824 0,-0.4943 0.34058,-0.802 0.35156,-0.3186 1.16455,-0.3186 l 3.06518,0 z"
           style="font-style:normal;font-variant:normal;font-weight:bold;font-stretch:normal;font-size:22.5px;font-family:'Courier New';-inkscape-font-specification:'Courier New Bold';fill:#ffffff;fill-opacity:1"
           id="path4367"
           inkscape:connector-curvature="0" />
        <path
           d="m 289.09595,1043.9336 -9.2395,0 q 0.35156,0.8789 1.24145,1.4172 0.90088,0.5384 2.42798,0.5384 1.25244,0 3.32886,-0.5384 0.85693,-0.2197 1.18652,-0.2197 0.45044,0 0.75806,0.3186 0.30761,0.3186 0.30761,0.802 0,0.4395 -0.32959,0.7471 -0.43945,0.4065 -2.14233,0.78 -1.70288,0.3626 -3.27393,0.3626 -2.70263,0 -4.32861,-1.5271 -1.61499,-1.5271 -1.61499,-3.7573 0,-2.3731 1.74683,-3.8563 1.75781,-1.4941 4.04297,-1.4941 1.37329,0 2.51586,0.4834 1.15357,0.4834 1.71387,1.0437 0.79102,0.813 1.30737,2.0105 0.35157,0.835 0.35157,1.9336 l 0,0.9558 z m -2.4939,-2.2522 q -0.51636,-0.9668 -1.35132,-1.4392 -0.83496,-0.4834 -1.98852,-0.4834 -1.14258,0 -1.97754,0.4834 -0.83496,0.4724 -1.36231,1.4392 l 6.67969,0 z"
           style="font-style:normal;font-variant:normal;font-weight:bold;font-stretch:normal;font-size:22.5px;font-family:'Courier New';-inkscape-font-specification:'Courier New Bold';fill:#ffffff;fill-opacity:1"
           id="path4369"
           inkscape:connector-curvature="0" />
        <path
           d="m 302.58716,1043.9336 -9.2395,0 q 0.35156,0.8789 1.24145,1.4172 0.90088,0.5384 2.42798,0.5384 1.25244,0 3.32886,-0.5384 0.85693,-0.2197 1.18652,-0.2197 0.45044,0 0.75806,0.3186 0.30761,0.3186 0.30761,0.802 0,0.4395 -0.32959,0.7471 -0.43945,0.4065 -2.14233,0.78 -1.70288,0.3626 -3.27393,0.3626 -2.70263,0 -4.32861,-1.5271 -1.61499,-1.5271 -1.61499,-3.7573 0,-2.3731 1.74683,-3.8563 1.75781,-1.4941 4.04297,-1.4941 1.37329,0 2.51587,0.4834 1.15356,0.4834 1.71386,1.0437 0.79102,0.813 1.30738,2.0105 0.35156,0.835 0.35156,1.9336 l 0,0.9558 z m -2.4939,-2.2522 q -0.51636,-0.9668 -1.35132,-1.4392 -0.83496,-0.4834 -1.98852,-0.4834 -1.14258,0 -1.97754,0.4834 -0.83496,0.4724 -1.36231,1.4392 l 6.67969,0 z"
           style="font-style:normal;font-variant:normal;font-weight:bold;font-stretch:normal;font-size:22.5px;font-family:'Courier New';-inkscape-font-specification:'Courier New Bold';fill:#ffffff;fill-opacity:1"
           id="path4371"
           inkscape:connector-curvature="0" />
        <path
           d="m 309.87109,1040.0554 0,4.5154 q 0,0.7251 0.29663,0.9558 0.46143,0.3626 1.64795,0.3626 1.72486,0 3.18604,-0.7361 0.5603,-0.2857 0.87891,-0.2857 0.43945,0 0.75805,0.3296 0.32959,0.3296 0.32959,0.802 0,0.4395 -0.35156,0.7581 -0.53833,0.5164 -2.13135,0.9558 -1.58203,0.4285 -2.66968,0.4285 -2.09838,0 -3.15307,-0.9009 -1.0437,-0.9119 -1.0437,-2.2302 l 0,-4.9549 -0.81299,0 q -0.81299,0 -1.16455,-0.3076 -0.34058,-0.3186 -0.34058,-0.824 0,-0.4943 0.34058,-0.802 0.35156,-0.3186 1.16455,-0.3186 l 0.81299,0 0,-2.0324 q 0,-0.813 0.30761,-1.1536 0.31861,-0.3516 0.82398,-0.3516 0.49438,0 0.802,0.3516 0.3186,0.3406 0.3186,1.1536 l 0,2.0324 4.16382,0 q 0.81299,0 1.15357,0.3186 0.35156,0.3077 0.35156,0.813 0,0.4944 -0.35156,0.813 -0.34058,0.3076 -1.15357,0.3076 l -4.16382,0 z"
           style="font-style:normal;font-variant:normal;font-weight:bold;font-stretch:normal;font-size:22.5px;font-family:'Courier New';-inkscape-font-specification:'Courier New Bold';fill:#ffffff;fill-opacity:1"
           id="path4373"
           inkscape:connector-curvature="0" />
        <path
           d="m 320.396,1038.814 0,6.7126 0.81298,0 q 0.81299,0 1.15357,0.3186 0.35156,0.3076 0.35156,0.813 0,0.4944 -0.35156,0.813 -0.34058,0.3076 -1.15357,0.3076 l -2.95532,0 q -0.81299,0 -1.15356,-0.3076 -0.35156,-0.3186 -0.35156,-0.824 0,-0.4944 0.34057,-0.802 0.34058,-0.3186 1.05469,-0.3186 l 0,-8.811 q -0.59326,-0.055 -0.90088,-0.3626 -0.29663,-0.3076 -0.29663,-0.769 0,-0.5054 0.34058,-0.813 0.35156,-0.3186 1.16455,-0.3186 l 2.47192,0.011 3.06519,6.7786 3.01025,-6.7896 2.4939,0.011 q 0.81298,0 1.15356,0.3076 0.35156,0.3076 0.35156,0.813 0,0.4614 -0.30761,0.769 -0.30762,0.3077 -0.8899,0.3626 l 0,8.811 q 0.71411,0 1.05469,0.3186 0.34058,0.3186 0.34058,0.813 0,0.4944 -0.35157,0.813 -0.34057,0.3076 -1.15356,0.3076 l -2.96631,0 q -0.802,0 -1.15356,-0.3076 -0.34058,-0.3186 -0.34058,-0.824 0,-0.4944 0.34058,-0.802 0.35156,-0.3186 1.15356,-0.3186 l 0.82398,0 0,-6.7126 -2.58179,5.8008 -1.95557,0 -2.61474,-5.8008 z"
           style="font-style:normal;font-variant:normal;font-weight:bold;font-stretch:normal;font-size:22.5px;font-family:'Courier New';-inkscape-font-specification:'Courier New Bold';fill:#ffffff;fill-opacity:1"
           id="path4375"
           inkscape:connector-curvature="0" />
        <path
           d="m 339.4353,1047.7788 0,-0.5273 q -0.84594,0.4504 -1.86767,0.6701 -1.02173,0.2308 -1.85669,0.2308 -1.81275,0 -2.94434,-0.9558 -1.13159,-0.9668 -1.13159,-2.1314 0,-1.4172 1.43921,-2.6257 1.45019,-1.2195 3.99902,-1.2195 1.02173,0 2.36206,0.2197 l 0,-0.5383 q 0,-0.5054 -0.43945,-0.824 -0.42847,-0.3186 -1.64795,-0.3186 -0.99976,0 -2.59277,0.3955 -0.59326,0.1428 -0.92285,0.1428 -0.45044,0 -0.76905,-0.3186 -0.30761,-0.3296 -0.30761,-0.8349 0,-0.2857 0.10986,-0.4944 0.10986,-0.2088 0.30762,-0.3296 0.19775,-0.1318 0.82397,-0.3076 0.83496,-0.2307 1.70288,-0.3626 0.86792,-0.1428 1.57105,-0.1428 2.09838,0 3.25195,0.9119 1.16455,0.9009 1.16455,2.4719 l 0,4.6362 0.38452,0 q 0.81299,0 1.15357,0.3186 0.35156,0.3076 0.35156,0.813 0,0.4944 -0.35156,0.813 -0.34058,0.3076 -1.15357,0.3076 l -2.63672,0 z m 0,-4.032 q -1.35132,-0.2636 -2.49389,-0.2636 -1.37329,0 -2.36206,0.6701 -0.61524,0.4285 -0.61524,0.868 0,0.3186 0.29663,0.5163 0.54932,0.3626 1.50513,0.3626 0.81299,0 1.83472,-0.3186 1.03271,-0.3186 1.83471,-0.868 l 0,-0.9668 z"
           style="font-style:normal;font-variant:normal;font-weight:bold;font-stretch:normal;font-size:22.5px;font-family:'Courier New';-inkscape-font-specification:'Courier New Bold';fill:#ffffff;fill-opacity:1"
           id="path4377"
           inkscape:connector-curvature="0" />
        <path
           d="m 348.10352,1046.5374 0,3.6914 1.35131,0 q 0.81299,0 1.15357,0.3076 0.35156,0.3186 0.35156,0.824 0,0.4944 -0.35156,0.802 -0.34058,0.3186 -1.15357,0.3186 l -3.98803,0 q -0.81299,0 -1.16455,-0.3186 -0.34058,-0.3076 -0.34058,-0.802 0,-0.5054 0.35156,-0.824 0.35156,-0.3076 1.15357,-0.3076 l 0.38452,0 0,-10.1734 -0.38452,0 q -0.81299,0 -1.16455,-0.3076 -0.34058,-0.3186 -0.34058,-0.824 0,-0.4943 0.34058,-0.802 0.35156,-0.3186 1.16455,-0.3186 l 2.63672,0 0,0.7691 q 0.79101,-0.5383 1.63696,-0.802 0.84595,-0.2637 1.73584,-0.2637 2.30713,0 3.9331,1.5711 1.62598,1.56 1.62598,3.5815 0,2.2302 -1.92261,3.6804 -1.604,1.2085 -3.6145,1.2085 -0.86792,0 -1.71387,-0.2527 -0.84594,-0.2527 -1.6809,-0.758 z m 6.67968,-3.8672 q 0,-0.4724 -0.37353,-1.1975 -0.37354,-0.7361 -1.15357,-1.2195 -0.76904,-0.4944 -1.81274,-0.4944 -1.68091,0 -2.66968,1.2634 -0.67016,0.868 -0.67016,1.67 0,0.9008 0.95581,1.7578 0.96679,0.8459 2.38403,0.8459 1.42822,0 2.38403,-0.8459 0.95581,-0.846 0.95581,-1.7798 z"
           style="font-style:normal;font-variant:normal;font-weight:bold;font-stretch:normal;font-size:22.5px;font-family:'Courier New';-inkscape-font-specification:'Courier New Bold';fill:#ffffff;fill-opacity:1"
           id="path4379"
           inkscape:connector-curvature="0" />
        <path
           d="m 378.68945,1033.5296 0,2.384 -2.68066,0 0,-2.384 2.68066,0 z m 0.30762,4.2736 0,7.7234 2.70264,0 q 0.81299,0 1.15356,0.3186 0.35156,0.3076 0.35156,0.813 0,0.4944 -0.35156,0.813 -0.34057,0.3076 -1.15356,0.3076 l -7.65747,0 q -0.81299,0 -1.16455,-0.3076 -0.34058,-0.3186 -0.34058,-0.824 0,-0.4944 0.34058,-0.802 0.35156,-0.3186 1.16455,-0.3186 l 2.70263,0 0,-5.4712 -1.81274,0 q -0.802,0 -1.15357,-0.3076 -0.35156,-0.3186 -0.35156,-0.824 0,-0.4943 0.34058,-0.802 0.35156,-0.3186 1.16455,-0.3186 l 4.06494,0 z"
           style="font-style:normal;font-variant:normal;font-weight:bold;font-stretch:normal;font-size:22.5px;font-family:'Courier New';-inkscape-font-specification:'Courier New Bold';fill:#ffffff;fill-opacity:1"
           id="path4381"
           inkscape:connector-curvature="0" />
        <path
           d="m 389.09351,1037.8032 0,0.7581 q 0.61523,-0.5273 1.35131,-0.791 0.74707,-0.2637 1.61499,-0.2637 1.99952,0 3.16407,1.2415 0.92285,0.9887 0.92285,2.5927 l 0,4.1858 q 0.71411,0 1.05469,0.3186 0.34057,0.3076 0.34057,0.813 0,0.4944 -0.35156,0.813 -0.34058,0.3076 -1.15356,0.3076 l -2.03248,0 q -0.81298,0 -1.16455,-0.3076 -0.34057,-0.3186 -0.34057,-0.824 0,-0.4944 0.34057,-0.802 0.34058,-0.3186 1.05469,-0.3186 l 0,-4.2517 q 0,-0.7361 -0.39551,-1.0766 -0.51635,-0.4395 -1.54907,-0.4395 -0.78003,0 -1.37329,0.3076 -0.58228,0.2967 -1.48315,1.2744 l 0,4.1858 q 0.86792,0 1.1206,0.1648 0.53833,0.3296 0.53833,0.9668 0,0.4944 -0.35156,0.813 -0.34058,0.3076 -1.15357,0.3076 l -2.55981,0 q -0.81299,0 -1.16455,-0.3076 -0.34058,-0.3186 -0.34058,-0.824 0,-0.6152 0.52735,-0.9558 0.26367,-0.1648 1.13159,-0.1648 l 0,-5.4712 q -0.71411,0 -1.05469,-0.3186 -0.34058,-0.3186 -0.34058,-0.813 0,-0.4943 0.34058,-0.802 0.35156,-0.3186 1.16455,-0.3186 l 2.14234,0 z"
           style="font-style:normal;font-variant:normal;font-weight:bold;font-stretch:normal;font-size:22.5px;font-family:'Courier New';-inkscape-font-specification:'Courier New Bold';fill:#ffffff;fill-opacity:1"
           id="path4383"
           inkscape:connector-curvature="0" />
        <path
           d="m 410.03345,1033.5296 0,11.997 0.38452,0 q 0.802,0 1.15356,0.3186 0.35157,0.3076 0.35157,0.813 0,0.4944 -0.35157,0.813 -0.34057,0.3076 -1.15356,0.3076 l -2.63672,0 0,-0.5493 q -0.76904,0.4504 -1.61499,0.6812 -0.83496,0.2307 -1.73584,0.2307 -2.53784,0 -4.08691,-1.4612 -1.54908,-1.4722 -1.54908,-3.6585 0,-2.2851 1.62598,-3.9001 1.62598,-1.615 3.96606,-1.615 0.87891,0 1.72486,0.2747 0.84595,0.2636 1.66992,0.802 l 0,-2.8015 -0.38452,0 q -0.81299,0 -1.16455,-0.3077 -0.34058,-0.3186 -0.34058,-0.813 0,-0.5053 0.34058,-0.8129 0.35156,-0.3186 1.16455,-0.3186 l 2.63672,0 z m -2.2522,9.5581 q 0,-1.3953 -0.97778,-2.3621 -0.97779,-0.9668 -2.39502,-0.9668 -1.40625,0 -2.38404,0.9668 -0.97778,0.9668 -0.97778,2.3291 0,1.2415 0.87891,2.0435 0.8789,0.791 2.48291,0.791 1.59301,0 2.48291,-0.791 0.88989,-0.802 0.88989,-2.0105 z"
           style="font-style:normal;font-variant:normal;font-weight:bold;font-stretch:normal;font-size:22.5px;font-family:'Courier New';-inkscape-font-specification:'Courier New Bold';fill:#ffffff;fill-opacity:1"
           id="path4385"
           inkscape:connector-curvature="0" />
        <path
           d="m 424.20581,1042.9778 q 0,1.2964 -0.7251,2.5159 -0.71411,1.2085 -2.14233,1.9336 -1.41724,0.7141 -2.96631,0.7141 -1.53809,0 -2.94434,-0.7032 -1.40625,-0.7141 -2.14233,-1.9335 -0.73608,-1.2195 -0.73608,-2.5489 0,-1.3513 0.74707,-2.6477 0.74707,-1.3074 2.14233,-2.0544 1.40625,-0.7471 2.93335,-0.7471 1.53809,0 2.95532,0.7691 1.42823,0.758 2.15332,2.0544 0.7251,1.2854 0.7251,2.6477 z m -2.2522,0.011 q 0,-1.0877 -0.78003,-1.9995 -1.06567,-1.2305 -2.80151,-1.2305 -1.5271,0 -2.54883,0.9778 -1.02173,0.9778 -1.02173,2.2632 0,1.0547 1.03272,1.9775 1.03271,0.9119 2.53784,0.9119 1.51611,0 2.54883,-0.9119 1.03271,-0.9228 1.03271,-1.9885 z"
           style="font-style:normal;font-variant:normal;font-weight:bold;font-stretch:normal;font-size:22.5px;font-family:'Courier New';-inkscape-font-specification:'Courier New Bold';fill:#ffffff;fill-opacity:1"
           id="path4387"
           inkscape:connector-curvature="0" />
        <path
           d="m 437.69702,1042.9778 q 0,1.2964 -0.7251,2.5159 -0.71411,1.2085 -2.14233,1.9336 -1.41724,0.7141 -2.96631,0.7141 -1.53808,0 -2.94433,-0.7032 -1.40625,-0.7141 -2.14234,-1.9335 -0.73608,-1.2195 -0.73608,-2.5489 0,-1.3513 0.74707,-2.6477 0.74707,-1.3074 2.14233,-2.0544 1.40625,-0.7471 2.93335,-0.7471 1.53809,0 2.95532,0.7691 1.42823,0.758 2.15332,2.0544 0.7251,1.2854 0.7251,2.6477 z m -2.2522,0.011 q 0,-1.0877 -0.78003,-1.9995 -1.06567,-1.2305 -2.80151,-1.2305 -1.5271,0 -2.54883,0.9778 -1.02173,0.9778 -1.02173,2.2632 0,1.0547 1.03272,1.9775 1.03271,0.9119 2.53784,0.9119 1.51611,0 2.54883,-0.9119 1.03271,-0.9228 1.03271,-1.9885 z"
           style="font-style:normal;font-variant:normal;font-weight:bold;font-stretch:normal;font-size:22.5px;font-family:'Courier New';-inkscape-font-specification:'Courier New Bold';fill:#ffffff;fill-opacity:1"
           id="path4389"
           inkscape:connector-curvature="0" />
        <path
           d="m 444.87109,1037.8032 0,1.4063 q 1.41724,-1.0217 2.23023,-1.3623 0.82397,-0.3406 1.53808,-0.3406 1.09864,0 2.13135,0.813 0.70313,0.5493 0.70313,1.1206 0,0.4834 -0.34058,0.824 -0.32959,0.3296 -0.802,0.3296 -0.41748,0 -0.87891,-0.4175 -0.46142,-0.4175 -0.82397,-0.4175 -0.47241,0 -1.41724,0.5933 -0.93384,0.5932 -2.34009,1.7798 l 0,3.3947 3.20801,0 q 0.81299,0 1.15357,0.3186 0.35156,0.3076 0.35156,0.813 0,0.4944 -0.35156,0.813 -0.34058,0.3076 -1.15357,0.3076 l -6.80054,0 q -0.81298,0 -1.16455,-0.3076 -0.34057,-0.3186 -0.34057,-0.824 0,-0.4944 0.34057,-0.802 0.35157,-0.3186 1.16455,-0.3186 l 1.34034,0 0,-5.4712 -0.81299,0 q -0.81299,0 -1.16455,-0.3076 -0.34058,-0.3186 -0.34058,-0.824 0,-0.4943 0.34058,-0.802 0.35156,-0.3186 1.16455,-0.3186 l 3.06518,0 z"
           style="font-style:normal;font-variant:normal;font-weight:bold;font-stretch:normal;font-size:22.5px;font-family:'Courier New';-inkscape-font-specification:'Courier New Bold';fill:#ffffff;fill-opacity:1"
           id="path4391"
           inkscape:connector-curvature="0" />
        <path
           d="m 472.33691,1045.0432 2.42798,-4.9878 q -0.90088,0 -1.15356,-0.1538 -0.54932,-0.3405 -0.54932,-0.9778 0,-0.4943 0.34058,-0.802 0.35156,-0.3186 1.16455,-0.3186 l 3.08716,0 q 0.81299,0 1.15356,0.3186 0.35156,0.3077 0.35156,0.813 0,0.4944 -0.35156,0.813 -0.34057,0.3076 -1.15356,0.3076 l -0.37354,0 -3.76831,7.7234 -2.35107,0 -3.76831,-7.7234 -0.31861,0 q -0.81299,0 -1.16455,-0.3076 -0.34057,-0.3186 -0.34057,-0.824 0,-0.4943 0.34057,-0.802 0.35156,-0.3186 1.16455,-0.3186 l 3.02124,0 q 0.80201,0 1.14258,0.3186 0.35156,0.3077 0.35156,0.813 0,0.6263 -0.52734,0.9558 -0.26367,0.1648 -1.17554,0.1648 l 2.44995,4.9878 z"
           style="font-style:normal;font-variant:normal;font-weight:bold;font-stretch:normal;font-size:22.5px;font-family:'Courier New';-inkscape-font-specification:'Courier New Bold';fill:#ffffff;fill-opacity:1"
           id="path4393"
           inkscape:connector-curvature="0" />
        <path
           d="m 486.61914,1033.5296 0,2.384 -2.68066,0 0,-2.384 2.68066,0 z m 0.30762,4.2736 0,7.7234 2.70263,0 q 0.81299,0 1.15357,0.3186 0.35156,0.3076 0.35156,0.813 0,0.4944 -0.35156,0.813 -0.34058,0.3076 -1.15357,0.3076 l -7.65747,0 q -0.81298,0 -1.16455,-0.3076 -0.34057,-0.3186 -0.34057,-0.824 0,-0.4944 0.34057,-0.802 0.35157,-0.3186 1.16455,-0.3186 l 2.70264,0 0,-5.4712 -1.81274,0 q -0.80201,0 -1.15357,-0.3076 -0.35156,-0.3186 -0.35156,-0.824 0,-0.4943 0.34058,-0.802 0.35156,-0.3186 1.16455,-0.3186 l 4.06494,0 z"
           style="font-style:normal;font-variant:normal;font-weight:bold;font-stretch:normal;font-size:22.5px;font-family:'Courier New';-inkscape-font-specification:'Courier New Bold';fill:#ffffff;fill-opacity:1"
           id="path4395"
           inkscape:connector-curvature="0" />
        <path
           d="m 504.95532,1043.9336 -9.2395,0 q 0.35156,0.8789 1.24146,1.4172 0.90087,0.5384 2.42797,0.5384 1.25245,0 3.32886,-0.5384 0.85693,-0.2197 1.18652,-0.2197 0.45044,0 0.75806,0.3186 0.30762,0.3186 0.30762,0.802 0,0.4395 -0.32959,0.7471 -0.43945,0.4065 -2.14234,0.78 -1.70288,0.3626 -3.27392,0.3626 -2.70264,0 -4.32861,-1.5271 -1.61499,-1.5271 -1.61499,-3.7573 0,-2.3731 1.74682,-3.8563 1.75781,-1.4941 4.04297,-1.4941 1.37329,0 2.51587,0.4834 1.15356,0.4834 1.71387,1.0437 0.79101,0.813 1.30737,2.0105 0.35156,0.835 0.35156,1.9336 l 0,0.9558 z m -2.49389,-2.2522 q -0.51636,-0.9668 -1.35132,-1.4392 -0.83496,-0.4834 -1.98853,-0.4834 -1.14258,0 -1.97754,0.4834 -0.83496,0.4724 -1.3623,1.4392 l 6.67969,0 z"
           style="font-style:normal;font-variant:normal;font-weight:bold;font-stretch:normal;font-size:22.5px;font-family:'Courier New';-inkscape-font-specification:'Courier New Bold';fill:#ffffff;fill-opacity:1"
           id="path4397"
           inkscape:connector-curvature="0" />
        <path
           d="m 512.81055,1043.626 -1.56006,4.1528 -2.12036,0 -1.88965,-7.7234 q -0.61524,-0.033 -0.93384,-0.3405 -0.30762,-0.3186 -0.30762,-0.7911 0,-0.4943 0.34058,-0.802 0.35156,-0.3186 1.16455,-0.3186 l 2.09839,0 q 0.81299,0 1.15356,0.3186 0.35157,0.3077 0.35157,0.813 0,0.5054 -0.39551,0.857 -0.29663,0.2636 -1.16455,0.2636 l 0.85693,3.5706 1.39526,-3.6585 1.99952,0 1.40625,3.6585 0.8789,-3.5706 q -0.83496,0 -1.09863,-0.1648 -0.52734,-0.3405 -0.52734,-0.9668 0,-0.4943 0.34057,-0.802 0.35156,-0.3186 1.16455,-0.3186 l 2.12036,0 q 0.81299,0 1.15357,0.3186 0.35156,0.3077 0.35156,0.813 0,0.4505 -0.30762,0.7691 -0.29663,0.3076 -0.88989,0.3515 l -1.8457,7.7234 -2.0874,0 -1.64795,-4.1528 z"
           style="font-style:normal;font-variant:normal;font-weight:bold;font-stretch:normal;font-size:22.5px;font-family:'Courier New';-inkscape-font-specification:'Courier New Bold';fill:#ffffff;fill-opacity:1"
           id="path4399"
           inkscape:connector-curvature="0" />
        <path
           d="m 531.93774,1043.9336 -9.2395,0 q 0.35156,0.8789 1.24146,1.4172 0.90088,0.5384 2.42798,0.5384 1.25244,0 3.32885,-0.5384 0.85694,-0.2197 1.18653,-0.2197 0.45044,0 0.75805,0.3186 0.30762,0.3186 0.30762,0.802 0,0.4395 -0.32959,0.7471 -0.43945,0.4065 -2.14233,0.78 -1.70288,0.3626 -3.27393,0.3626 -2.70264,0 -4.32861,-1.5271 -1.61499,-1.5271 -1.61499,-3.7573 0,-2.3731 1.74682,-3.8563 1.75782,-1.4941 4.04297,-1.4941 1.37329,0 2.51587,0.4834 1.15357,0.4834 1.71387,1.0437 0.79101,0.813 1.30737,2.0105 0.35156,0.835 0.35156,1.9336 l 0,0.9558 z m -2.49389,-2.2522 q -0.51636,-0.9668 -1.35132,-1.4392 -0.83496,-0.4834 -1.98853,-0.4834 -1.14257,0 -1.97754,0.4834 -0.83496,0.4724 -1.3623,1.4392 l 6.67969,0 z"
           style="font-style:normal;font-variant:normal;font-weight:bold;font-stretch:normal;font-size:22.5px;font-family:'Courier New';-inkscape-font-specification:'Courier New Bold';fill:#ffffff;fill-opacity:1"
           id="path4401"
           inkscape:connector-curvature="0" />
        <path
           d="m 539.30957,1037.8032 0,1.4063 q 1.41724,-1.0217 2.23022,-1.3623 0.82398,-0.3406 1.53809,-0.3406 1.09863,0 2.13135,0.813 0.70312,0.5493 0.70312,1.1206 0,0.4834 -0.34057,0.824 -0.32959,0.3296 -0.802,0.3296 -0.41749,0 -0.87891,-0.4175 -0.46143,-0.4175 -0.82398,-0.4175 -0.47241,0 -1.41723,0.5933 -0.93384,0.5932 -2.34009,1.7798 l 0,3.3947 3.20801,0 q 0.81299,0 1.15356,0.3186 0.35157,0.3076 0.35157,0.813 0,0.4944 -0.35157,0.813 -0.34057,0.3076 -1.15356,0.3076 l -6.80054,0 q -0.81299,0 -1.16455,-0.3076 -0.34058,-0.3186 -0.34058,-0.824 0,-0.4944 0.34058,-0.802 0.35156,-0.3186 1.16455,-0.3186 l 1.34033,0 0,-5.4712 -0.81299,0 q -0.81298,0 -1.16455,-0.3076 -0.34057,-0.3186 -0.34057,-0.824 0,-0.4943 0.34057,-0.802 0.35157,-0.3186 1.16455,-0.3186 l 3.06519,0 z"
           style="font-style:normal;font-variant:normal;font-weight:bold;font-stretch:normal;font-size:22.5px;font-family:'Courier New';-inkscape-font-specification:'Courier New Bold';fill:#ffffff;fill-opacity:1"
           id="path4403"
           inkscape:connector-curvature="0" />
      </g>
    </g>
  </g>
</svg>
